<svg width="20" height="20" viewBox="0 0 20 20" fill="none" xmlns="http://www.w3.org/2000/svg">
<path d="M10 20C15.5228 20 20 15.5228 20 10C20 4.47715 15.5228 0 10 0C4.47715 0 0 4.47715 0 10C0 15.5228 4.47715 20 10 20Z" fill="#50E26B"/>
<path d="M8.80691 14.2421C8.62066 14.2421 8.44205 14.1675 8.31037 14.0349L5.24305 10.9465C5.11512 10.8131 5.04432 10.6345 5.04592 10.449C5.04753 10.2636 5.12139 10.0863 5.2516 9.95516C5.38182 9.82405 5.55797 9.74968 5.74212 9.74806C5.92627 9.74645 6.10368 9.81773 6.23614 9.94654L8.74089 12.4686L13.7148 6.02925C13.8307 5.8859 13.9977 5.79394 14.1802 5.77308C14.3626 5.75221 14.5459 5.8041 14.6908 5.91763C14.8357 6.03116 14.9306 6.1973 14.9554 6.38048C14.9801 6.56365 14.9326 6.74929 14.8231 6.89764L9.36105 13.9692C9.29992 14.0483 9.22278 14.1134 9.13475 14.1602C9.04672 14.207 8.94982 14.2345 8.85046 14.2407L8.80691 14.2421Z" fill="white"/>
</svg>
