<svg width="14" height="14" viewBox="0 0 14 14" fill="none" xmlns="http://www.w3.org/2000/svg">
<g id="Group 31615">
<path id="Vector" d="M0.644448 8.79144C1.03836 8.99145 1.5115 8.94976 1.86452 8.68393L2.93355 7.88863C3.08511 9.38068 4.33818 10.5163 5.83502 10.5182H5.88458L8.28858 12.9263C8.61574 13.2564 9.06127 13.4414 9.52558 13.4399H13.4168C13.7389 13.4399 14 13.1783 14 12.8556C14 12.5328 13.7389 12.2712 13.4168 12.2712H9.5256C9.37101 12.2708 9.22284 12.2093 9.11326 12.1L7.53452 10.5182H11.0839C12.6936 10.5162 13.9981 9.20927 14 7.59644V2.92166C13.9981 1.30886 12.6936 0.00186062 11.0839 -5.72205e-05H5.83502C4.33815 0.00183296 3.08511 1.13745 2.93355 2.6295L1.86627 1.83245C1.35092 1.44519 0.619788 1.54982 0.233283 2.06618C0.0818577 2.26846 6.67572e-06 2.51452 6.67572e-06 2.76739V7.74663C-0.00152397 8.18952 0.248401 8.59472 0.644448 8.79144ZM4.08538 2.92169C4.08538 1.95352 4.86873 1.16865 5.83502 1.16865H11.0839C12.0502 1.16865 12.8336 1.95352 12.8336 2.92169V7.59644C12.8336 8.56462 12.0502 9.34949 11.0839 9.34949H5.83502C4.86873 9.34949 4.08538 8.56462 4.08538 7.59644V2.92169ZM1.16934 2.7715L2.91897 4.07809V6.44001L1.16934 7.7466V2.7715Z" fill="#ED2939"/>
</g>
</svg>
