<svg width="24" height="24" viewBox="0 0 24 24" fill="none" xmlns="http://www.w3.org/2000/svg">
<circle cx="12" cy="12" r="12" fill="#535561"/>
<path d="M5.64445 13.7914C6.03836 13.9915 6.5115 13.9498 6.86452 13.6839L7.93355 12.8886C8.08511 14.3807 9.33818 15.5163 10.835 15.5182H10.8846L13.2886 17.9263C13.6157 18.2564 14.0613 18.4414 14.5256 18.4399H18.4168C18.7389 18.4399 19 18.1783 19 17.8556C19 17.5328 18.7389 17.2712 18.4168 17.2712H14.5256C14.371 17.2708 14.2228 17.2093 14.1133 17.1L12.5345 15.5182H16.0839C17.6936 15.5162 18.9981 14.2093 19 12.5964V7.92166C18.9981 6.30886 17.6936 5.00186 16.0839 4.99994H10.835C9.33815 5.00183 8.08511 6.13745 7.93355 7.6295L6.86627 6.83245C6.35092 6.44519 5.61979 6.54982 5.23328 7.06618C5.08186 7.26846 5.00001 7.51452 5.00001 7.76739V12.7466C4.99848 13.1895 5.2484 13.5947 5.64445 13.7914ZM9.08538 7.92169C9.08538 6.95352 9.86873 6.16865 10.835 6.16865H16.0839C17.0502 6.16865 17.8336 6.95352 17.8336 7.92169V12.5964C17.8336 13.5646 17.0502 14.3495 16.0839 14.3495H10.835C9.86873 14.3495 9.08538 13.5646 9.08538 12.5964V7.92169ZM6.16934 7.7715L7.91898 9.07809V11.44L6.16934 12.7466V7.7715Z" fill="#ED2939"/>
</svg>
