<svg width="20" height="20" viewBox="0 0 20 20" fill="none" xmlns="http://www.w3.org/2000/svg">
<path d="M16.541 6.16663C16.166 6.04163 15.916 5.83329 15.916 5.58329V5.41663C16.416 4.91663 16.7077 4.08329 16.7077 3.33329C16.7077 2.16663 15.9577 1.41663 14.7493 1.41663C13.5827 1.41663 12.791 2.16663 12.791 3.33329C12.791 4.08329 13.0827 4.87496 13.5827 5.41663V5.54163C13.5827 5.74996 13.3327 5.99996 12.9577 6.12496C11.9993 6.45829 11.416 7.16663 11.416 7.95829V8.58329C11.416 8.83329 11.5827 8.99996 11.8327 8.99996H17.6243C17.8743 8.99996 18.041 8.83329 18.041 8.58329V7.95829C18.0827 7.16663 17.4993 6.45829 16.541 6.16663ZM14.791 2.24996C15.2077 2.24996 15.916 2.37496 15.916 3.33329C15.916 4.20829 15.3327 5.12496 14.791 5.12496C14.2493 5.12496 13.666 4.20829 13.666 3.33329C13.666 2.41663 14.3743 2.24996 14.791 2.24996ZM17.2493 8.16663H12.291V7.95829C12.291 7.54163 12.666 7.12496 13.291 6.91663C13.8743 6.70829 14.291 6.33329 14.416 5.91663C14.541 5.95829 14.666 5.95829 14.791 5.95829C14.916 5.95829 15.041 5.95829 15.166 5.91663C15.291 6.37496 15.7077 6.74996 16.291 6.91663C16.8743 7.12496 17.291 7.54163 17.291 7.95829V8.16663H17.2493Z" fill="white"/>
<path d="M18.75 0H10.8333C10.125 0 9.58333 0.541667 9.58333 1.25V2.45833C9.04167 2.25 8.41667 2.125 7.75 2.125C5.08333 2.125 3.45833 3.75 3.45833 6.375C3.45833 8.25 4.29167 10.2083 5.5 11.3333V11.9583C5.5 12.7917 4.70833 13.625 3.54167 14C1.375 14.75 0 16.3333 0 18.0417V19.5833C0 19.8333 0.166667 20 0.416667 20H15.0833C15.3333 20 15.5 19.8333 15.5 19.5833V18.0417C15.5 16.3333 14.125 14.75 12 14.0417C10.7917 13.625 10.0417 12.8333 10.0417 12V11.375C10.3333 11.0833 10.5833 10.7917 10.8333 10.4167H13.5V11.75C13.5 11.7917 13.4583 11.8333 13.4167 11.8333H11.9167C11.6667 11.8333 11.5 12 11.5 12.25C11.5 12.5 11.6667 12.6667 11.9167 12.6667H13.4167C13.9167 12.6667 14.3333 12.25 14.3333 11.75V10.4167H18.75C19.4583 10.4167 20 9.875 20 9.16667V1.25C20 0.541667 19.4583 0 18.75 0ZM11.7083 14.8333C13.5 15.4167 14.6667 16.7083 14.6667 18.0417V19.1667H0.833333V18.0417C0.833333 16.6667 2 15.4167 3.79167 14.8333C5.375 14.2917 6.33333 13.2083 6.33333 12C6.79167 12.25 7.29167 12.375 7.75 12.375C8.20833 12.375 8.70833 12.25 9.16667 12C9.16667 13.2083 10.1667 14.3333 11.7083 14.8333ZM9.33333 10.875C8.29167 11.75 7.20833 11.75 6.16667 10.875C5.04167 9.91667 4.29167 8.08333 4.29167 6.375C4.29167 4.25 5.58333 2.95833 7.75 2.95833C8.45833 2.95833 9.08333 3.125 9.58333 3.375V9.16667C9.58333 9.54167 9.75 9.875 10 10.125C9.79167 10.4167 9.58333 10.6667 9.33333 10.875ZM19.1667 9.16667C19.1667 9.41667 19 9.58333 18.75 9.58333H10.8333C10.5833 9.58333 10.4167 9.41667 10.4167 9.16667V1.25C10.4167 1 10.5833 0.833333 10.8333 0.833333H18.75C19 0.833333 19.1667 1 19.1667 1.25V9.16667Z" fill="white"/>
<path d="M1.58349 3.99984C1.83349 3.99984 2.00015 3.83317 2.00015 3.58317V2.08317C2.00015 2.0415 2.04182 1.99984 2.08349 1.99984H3.58349C3.83349 1.99984 4.00015 1.83317 4.00015 1.58317C4.00015 1.33317 3.83349 1.1665 3.58349 1.1665H2.12515C1.62515 1.1665 1.20849 1.58317 1.20849 2.08317V3.58317C1.16682 3.7915 1.37515 3.99984 1.58349 3.99984Z" fill="white"/>
<path d="M2.12657 12.7082H3.62657C3.87657 12.7082 4.04324 12.5415 4.04324 12.2915C4.04324 12.0415 3.87657 11.8748 3.62657 11.8748H2.12657C2.0849 11.8748 2.04324 11.8332 2.04324 11.7915V10.3332C2.04324 10.0832 1.87657 9.9165 1.62657 9.9165C1.37657 9.9165 1.2099 10.0832 1.2099 10.3332V11.7915C1.16824 12.2915 1.5849 12.7082 2.12657 12.7082Z" fill="white"/>
</svg>
