<svg width="14" height="14" viewBox="0 0 14 14" fill="none" xmlns="http://www.w3.org/2000/svg">
<path d="M5.76238 10.5712C6.44559 11.2548 7.55361 11.2552 8.23726 10.572C8.23753 10.5717 8.23778 10.5714 8.23805 10.5712L10.1111 8.6981C10.3272 8.45914 10.3086 8.09025 10.0697 7.87418C9.84718 7.67301 9.50839 7.67337 9.2863 7.875L7.57948 9.58243L7.58355 0.583352C7.58353 0.26116 7.32237 0 7.0002 0C6.67804 0 6.41688 0.26116 6.41688 0.583324L6.41163 9.57132L4.71413 7.875C4.48619 7.64723 4.11678 7.64736 3.889 7.8753C3.66123 8.10324 3.66137 8.47265 3.8893 8.70043L5.76238 10.5712Z" fill="white"/>
<path d="M13.4167 9.33301C13.0945 9.33301 12.8334 9.59417 12.8334 9.91633V12.2497C12.8334 12.5718 12.5722 12.833 12.25 12.833H1.75C1.42784 12.833 1.16668 12.5718 1.16668 12.2497V9.91636C1.16668 9.59419 0.905516 9.33304 0.583352 9.33304C0.26116 9.33301 0 9.59419 0 9.91636V12.2497C0 13.2162 0.783508 13.9997 1.75 13.9997H12.25C13.2165 13.9997 14 13.2162 14 12.2497V9.91636C14 9.59419 13.7388 9.33301 13.4167 9.33301Z" fill="white"/>
</svg>
