<svg width="21" height="20" viewBox="0 0 21 20" fill="none" xmlns="http://www.w3.org/2000/svg">
<path d="M16.9033 0H3.38066C1.51623 0 0 1.51623 0 3.38066V13.5227C0 15.3871 1.51623 16.9033 3.38066 16.9033H5.85108L9.01961 19.5715C9.34246 19.858 9.7473 20 10.1496 20C10.5451 20 10.9364 19.8622 11.2415 19.5909L14.4937 16.9033H16.9042C18.7686 16.9033 20.2848 15.3871 20.2848 13.5227V3.38066C20.2848 1.51623 18.7677 0 16.9033 0ZM18.5936 13.5227C18.5936 14.4549 17.8355 15.213 16.9033 15.213H14.1886C13.9926 15.213 13.8016 15.2814 13.6503 15.4065L10.1251 18.2936L6.70385 15.4116C6.55088 15.2831 6.35818 15.213 6.15872 15.213H3.37982C2.4476 15.213 1.68949 14.4549 1.68949 13.5227V3.38066C1.68949 2.44844 2.4476 1.69033 3.37982 1.69033H16.9025C17.8347 1.69033 18.5928 2.44844 18.5928 3.38066L18.5936 13.5227ZM10.8849 4.12356L6.06153 8.94692C5.42258 9.58502 5.07099 10.4344 5.07099 11.3371V12.6775C5.07099 13.144 5.44878 13.5227 5.91616 13.5227H7.25659C8.15923 13.5227 9.00862 13.1702 9.64672 12.5321L14.4701 7.70876C14.9484 7.22955 15.213 6.59314 15.213 5.91531C15.213 5.23749 14.9484 4.60108 14.4701 4.12272C13.4812 3.13387 11.8737 3.13387 10.8849 4.12272V4.12356ZM13.275 6.51369L8.45166 11.3371C8.13218 11.6565 7.70791 11.8323 7.25659 11.8323H6.76133V11.3371C6.76133 10.8925 6.94219 10.4564 7.25659 10.142L12.08 5.31863C12.4104 4.98901 12.9446 4.98901 13.275 5.31863C13.4348 5.47752 13.5227 5.68966 13.5227 5.91616C13.5227 6.14266 13.4348 6.35396 13.275 6.51369Z" fill="#46CEEB"/>
</svg>
