<svg width="14" height="14" viewBox="0 0 14 14" fill="none" xmlns="http://www.w3.org/2000/svg">
<path id="Vector" d="M6.9985 0C5.14316 0.00200669 3.36438 0.739926 2.05246 2.05185C0.740536 3.36377 0.00261667 5.14255 0.000609981 6.99789C-0.0728678 12.5805 6.50806 15.9954 11.0223 12.7227C11.0872 12.6796 11.1427 12.6239 11.1857 12.5589C11.2287 12.4939 11.2582 12.421 11.2725 12.3444C11.2868 12.2678 11.2857 12.1891 11.2691 12.113C11.2525 12.0369 11.2208 11.9648 11.1759 11.9012C11.131 11.8375 11.0738 11.7835 11.0077 11.7423C10.9416 11.701 10.8679 11.6735 10.7909 11.6613C10.714 11.649 10.6354 11.6523 10.5597 11.671C10.4841 11.6896 10.4129 11.7233 10.3505 11.7699C6.59029 14.495 1.10861 11.6503 1.16692 6.99789C1.48708 -0.738277 12.5111 -0.736527 12.8301 6.99789V8.1642C12.8301 8.47353 12.7072 8.77018 12.4885 8.98891C12.2697 9.20764 11.9731 9.33051 11.6638 9.33051C11.3544 9.33051 11.0578 9.20764 10.839 8.98891C10.6203 8.77018 10.4974 8.47353 10.4974 8.1642V6.99789C10.3505 2.37403 3.64593 2.37462 3.49955 6.99789C3.50634 7.707 3.72783 8.39742 4.13483 8.97815C4.54184 9.55887 5.11525 10.0026 5.7795 10.251C6.44374 10.4993 7.16764 10.5406 7.8558 10.3693C8.54395 10.198 9.16405 9.82219 9.63437 9.29144C9.88734 9.73792 10.2805 10.0885 10.7529 10.2889C11.2253 10.4893 11.7506 10.5284 12.2475 10.4C12.7443 10.2716 13.185 9.98292 13.5012 9.57872C13.8173 9.17452 13.9914 8.67734 13.9964 8.1642V6.99789C13.9944 5.14255 13.2565 3.36377 11.9445 2.05185C10.6326 0.739926 8.85384 0.00200669 6.9985 0ZM6.9985 9.33051C6.37985 9.33051 5.78653 9.08476 5.34908 8.6473C4.91163 8.20985 4.66587 7.61654 4.66587 6.99789C4.66587 6.37923 4.91163 5.78592 5.34908 5.34847C5.78653 4.91102 6.37985 4.66526 6.9985 4.66526C7.61715 4.66526 8.21046 4.91102 8.64791 5.34847C9.08537 5.78592 9.33113 6.37923 9.33113 6.99789C9.33113 7.61654 9.08537 8.20985 8.64791 8.6473C8.21046 9.08476 7.61715 9.33051 6.9985 9.33051Z" fill="#ED2939"/>
</svg>
