<svg width="17" height="20" viewBox="0 0 17 20" fill="none" xmlns="http://www.w3.org/2000/svg">
<g id="Group 32606">
<path id="Vector" d="M8.37797 5.00098C7.71876 5.00098 7.07435 5.19646 6.52623 5.5627C5.97811 5.92894 5.55091 6.44949 5.29864 7.05852C5.04637 7.66756 4.98036 8.33772 5.10897 8.98427C5.23757 9.63082 5.55502 10.2247 6.02115 10.6908C6.48729 11.157 7.08118 11.4744 7.72772 11.603C8.37427 11.7316 9.04444 11.6656 9.65347 11.4134C10.2625 11.1611 10.7831 10.7339 11.1493 10.1858C11.5155 9.63765 11.711 8.99324 11.711 8.33402C11.711 7.45004 11.3599 6.60227 10.7348 5.9772C10.1097 5.35214 9.26195 5.00098 8.37797 5.00098ZM8.37797 10.0005C8.04836 10.0005 7.72616 9.90281 7.4521 9.71969C7.17804 9.53657 6.96444 9.27629 6.8383 8.97177C6.71217 8.66726 6.67917 8.33217 6.74347 8.0089C6.80777 7.68563 6.96649 7.38868 7.19956 7.15561C7.43263 6.92255 7.72957 6.76382 8.05285 6.69952C8.37612 6.63522 8.7112 6.66822 9.01572 6.79436C9.32024 6.92049 9.58051 7.13409 9.76363 7.40815C9.94675 7.68221 10.0445 8.00442 10.0445 8.33402C10.0445 8.77601 9.86891 9.1999 9.55638 9.51243C9.24385 9.82497 8.81996 10.0005 8.37797 10.0005Z" fill="#ED2939"/>
<path id="Vector_2" d="M8.37844 19.9999C7.67679 20.0035 6.98449 19.839 6.35951 19.52C5.73452 19.2011 5.19505 18.737 4.78625 18.1668C1.61069 13.7863 0 10.4933 0 8.37844C0 6.15634 0.882726 4.02525 2.45399 2.45399C4.02525 0.882726 6.15634 0 8.37844 0C10.6005 0 12.7316 0.882726 14.3029 2.45399C15.8742 4.02525 16.7569 6.15634 16.7569 8.37844C16.7569 10.4933 15.1462 13.7863 11.9706 18.1668C11.5618 18.737 11.0224 19.2011 10.3974 19.52C9.7724 19.839 9.0801 20.0035 8.37844 19.9999ZM8.37844 1.81901C6.63894 1.82099 4.97125 2.51289 3.74124 3.7429C2.51122 4.97292 1.81933 6.64061 1.81734 8.38011C1.81734 10.055 3.39471 13.1522 6.25779 17.101C6.50085 17.4358 6.81972 17.7083 7.18831 17.8962C7.5569 18.0841 7.96473 18.182 8.37844 18.182C8.79216 18.182 9.19999 18.0841 9.56858 17.8962C9.93717 17.7083 10.256 17.4358 10.4991 17.101C13.3622 13.1522 14.9395 10.055 14.9395 8.38011C14.9376 6.64061 14.2457 4.97292 13.0157 3.7429C11.7856 2.51289 10.1179 1.82099 8.37844 1.81901Z" fill="#ED2939"/>
</g>
</svg>
