<svg width="14" height="9" viewBox="0 0 14 9" fill="none" xmlns="http://www.w3.org/2000/svg">
<path d="M13.5983 5.51303C12.4629 4.9599 11.2796 4.95407 10.1341 4.95407H10.1223C10.1157 4.94836 10.1087 4.94306 10.1014 4.93819L8.14734 3.62977C7.92773 3.47973 7.6674 3.40062 7.40144 3.40311H5.57423C5.16992 3.3992 4.76941 3.48136 4.3993 3.64412L2.58125 4.42284C2.49925 4.45874 2.41225 4.48193 2.32326 4.49161L1.22544 4.61993L0.89606 4.53284C0.863681 4.52428 0.829768 4.52327 0.796936 4.52989C0.764104 4.5365 0.733229 4.55057 0.706692 4.571C0.680154 4.59143 0.658663 4.61768 0.643874 4.64773C0.629085 4.67778 0.621394 4.71083 0.621393 4.74432V6.34841C0.618181 6.57184 0.671287 6.79249 0.775813 6.99C0.88034 7.18751 1.03292 7.35551 1.21948 7.47852C1.25503 7.50277 1.28937 7.52675 1.32273 7.5501C1.56379 7.7189 1.792 7.87823 2.17055 7.88271C2.25296 8.19279 2.43554 8.46695 2.68987 8.66254C2.9442 8.85814 3.25604 8.9642 3.57689 8.96425C3.89774 8.9643 4.20961 8.85832 4.464 8.6628C4.71839 8.46728 4.90104 8.19318 4.98355 7.88312H9.63782C9.72031 8.19314 9.90294 8.46722 10.1573 8.66274C10.4116 8.85825 10.7235 8.96425 11.0443 8.96425C11.3651 8.96425 11.6769 8.85825 11.9312 8.66274C12.1856 8.46722 12.3682 8.19314 12.4507 7.88312H13.3377C13.5132 7.88293 13.6816 7.81309 13.8057 7.68894C13.9299 7.56478 13.9997 7.39644 13.9999 7.22086V6.15541C14.0016 6.02111 13.9647 5.88915 13.8935 5.77526C13.8223 5.66136 13.7198 5.57034 13.5983 5.51303ZM7.40144 3.84067C7.58082 3.83749 7.75664 3.89092 7.90393 3.99335L9.33906 4.95429L6.45737 4.95495L5.39644 3.84625C5.45446 3.84261 5.5135 3.84078 5.57417 3.84078L7.40144 3.84067ZM4.57153 4.04635C4.67103 4.00342 4.77305 3.96658 4.87702 3.93604L5.85204 4.95522L4.48929 4.95552H4.48907C4.38444 4.9577 4.28055 4.93755 4.18433 4.89642C4.0881 4.85529 4.00174 4.79413 3.93101 4.717L3.66209 4.43594L4.57153 4.04635ZM3.57699 8.52679C3.37566 8.52679 3.17884 8.46709 3.01144 8.35523C2.84403 8.24337 2.71355 8.08439 2.63651 7.89838C2.55946 7.71237 2.5393 7.50769 2.57858 7.31022C2.61786 7.11275 2.71481 6.93136 2.85717 6.789C2.99954 6.64663 3.18093 6.54968 3.3784 6.5104C3.57586 6.47112 3.78054 6.49128 3.96656 6.56833C4.15257 6.64538 4.31155 6.77585 4.42341 6.94326C4.53527 7.11066 4.59497 7.30748 4.59497 7.50881C4.59466 7.77871 4.48732 8.03745 4.29647 8.2283C4.10563 8.41914 3.84688 8.52649 3.57699 8.52679ZM11.0443 8.52679C10.8429 8.52679 10.6461 8.46709 10.4787 8.35523C10.3113 8.24337 10.1808 8.08439 10.1038 7.89838C10.0267 7.71237 10.0066 7.50769 10.0458 7.31022C10.0851 7.11275 10.1821 6.93136 10.3244 6.789C10.4668 6.64663 10.6482 6.54968 10.8457 6.5104C11.0431 6.47112 11.2478 6.49128 11.4338 6.56833C11.6198 6.64538 11.7788 6.77585 11.8907 6.94326C12.0025 7.11066 12.0622 7.30748 12.0622 7.50881C12.0619 7.77871 11.9546 8.03745 11.7637 8.2283C11.5729 8.41914 11.3142 8.52649 11.0443 8.52679ZM13.3377 7.44562H12.4982C12.4849 7.13576 12.3729 6.83826 12.1786 6.59654C11.9842 6.35483 11.7177 6.18156 11.4179 6.10202C11.1181 6.02248 10.8008 6.04084 10.5122 6.15442C10.2236 6.26799 9.97881 6.47084 9.81364 6.73335H7.73369C7.72981 6.72856 7.72584 6.72381 7.72152 6.71927L7.21544 6.19033C7.17533 6.14841 7.12021 6.12414 7.06221 6.12286C7.0042 6.12158 6.94807 6.1434 6.90615 6.18351C6.86423 6.22362 6.83996 6.27874 6.83868 6.33675C6.8374 6.39475 6.85921 6.45089 6.89932 6.49281L7.1295 6.73343H6.34171L5.82218 6.19044C5.80243 6.16926 5.77866 6.1522 5.75227 6.14027C5.72588 6.12834 5.69738 6.12178 5.66842 6.12095C5.63947 6.12012 5.61064 6.12505 5.58361 6.13545C5.55658 6.14586 5.53188 6.16153 5.51095 6.18155C5.49002 6.20157 5.47328 6.22555 5.46169 6.2521C5.45011 6.27864 5.44391 6.30723 5.44345 6.33619C5.443 6.36515 5.4483 6.39391 5.45906 6.42081C5.46981 6.4477 5.48579 6.47219 5.50609 6.49286L6.09023 7.10339C6.11065 7.12474 6.13518 7.14172 6.16234 7.15333C6.1895 7.16494 6.21873 7.17093 6.24827 7.17093H9.62885C9.60727 7.26108 9.5944 7.35309 9.5904 7.44571H5.03085C5.01462 7.07123 4.85453 6.71746 4.58392 6.4581C4.31332 6.19874 3.95307 6.0538 3.57825 6.05347C3.20342 6.05314 2.84293 6.19744 2.57186 6.45632C2.3008 6.7152 2.14008 7.06869 2.12319 7.44313C1.91045 7.42725 1.77267 7.33125 1.57358 7.19179C1.53866 7.16735 1.50279 7.14225 1.46546 7.11684C1.33787 7.03399 1.23355 6.91993 1.16238 6.78546C1.09122 6.651 1.05557 6.50059 1.05881 6.34849V5.93708H1.24067C1.29869 5.93708 1.35433 5.91403 1.39535 5.87301C1.43637 5.83198 1.45942 5.77634 1.45942 5.71833C1.45942 5.66031 1.43637 5.60467 1.39535 5.56365C1.35433 5.52262 1.29869 5.49958 1.24067 5.49958H1.05878V5.02845L1.15358 5.05349C1.18009 5.06052 1.20769 5.06249 1.23493 5.05929L2.37396 4.92615C2.50478 4.91164 2.63267 4.87753 2.75335 4.82498L3.2326 4.61971L3.61484 5.01934C3.7268 5.13865 3.8623 5.23345 4.01275 5.29775C4.16321 5.36205 4.32537 5.39445 4.48898 5.39291H4.48931L10.0969 5.39163C11.2145 5.39163 12.2739 5.39163 13.2969 5.85494C13.2475 5.87118 13.2055 5.90449 13.1784 5.9489C13.1513 5.99332 13.141 6.04592 13.1492 6.09728C13.1574 6.14864 13.1836 6.19539 13.2232 6.22915C13.2628 6.26291 13.3131 6.28147 13.3651 6.2815H13.5624V7.22089C13.5624 7.28048 13.5387 7.3376 13.4965 7.37973C13.4544 7.42186 13.3972 7.44556 13.3377 7.44562ZM11.2633 7.50881C11.2633 7.55206 11.2504 7.59433 11.2264 7.63029C11.2024 7.66626 11.1683 7.69429 11.1283 7.71087C11.0884 7.72744 11.0444 7.7318 11.002 7.7234C10.9596 7.71499 10.9206 7.69421 10.89 7.66367C10.8594 7.63312 10.8385 7.59419 10.83 7.55179C10.8215 7.50939 10.8258 7.46542 10.8423 7.42544C10.8588 7.38546 10.8867 7.35127 10.9226 7.32717C10.9585 7.30308 11.0008 7.29016 11.044 7.29007H11.0445C11.1025 7.29007 11.1582 7.31311 11.1992 7.35414C11.2402 7.39516 11.2633 7.4508 11.2633 7.50881ZM3.79599 7.50881C3.79599 7.55206 3.78317 7.59433 3.75916 7.63029C3.73514 7.66626 3.70101 7.69429 3.66106 7.71087C3.62112 7.72744 3.57716 7.7318 3.53474 7.7234C3.49232 7.71499 3.45335 7.69421 3.42273 7.66367C3.39212 7.63312 3.37125 7.59419 3.36275 7.55179C3.35426 7.50939 3.35852 7.46542 3.375 7.42544C3.39148 7.38546 3.41944 7.35127 3.45535 7.32717C3.49126 7.30308 3.5335 7.29016 3.57675 7.29007H3.57724C3.63525 7.29007 3.69089 7.31311 3.73192 7.35414C3.77294 7.39516 3.79599 7.4508 3.79599 7.50881ZM0.29532 2.75204L0.554346 2.80538L0.408933 3.02629C0.361512 3.09722 0.340302 3.18246 0.348957 3.26734C0.357611 3.35222 0.395587 3.43143 0.456347 3.49133L0.800877 3.83585C0.860759 3.89661 0.939945 3.93459 1.02481 3.94325C1.10967 3.95192 1.1949 3.93074 1.26583 3.88335L1.48674 3.73791L1.54011 3.99696C1.55674 4.08065 1.60202 4.15591 1.66816 4.20981C1.73429 4.26371 1.81715 4.29287 1.90247 4.29227H2.38962C2.47494 4.29287 2.5578 4.26371 2.62393 4.20981C2.69007 4.15591 2.73535 4.08065 2.75198 3.99696L2.80533 3.73794L3.02624 3.88338C3.09717 3.9308 3.18241 3.952 3.26729 3.94334C3.35217 3.93468 3.43138 3.8967 3.49127 3.83594L3.8358 3.49141C3.89655 3.43151 3.93452 3.3523 3.94316 3.26743C3.95181 3.18256 3.9306 3.09732 3.88319 3.0264L3.73775 2.80549L3.99677 2.75214C4.08045 2.73552 4.15572 2.69024 4.20962 2.6241C4.26352 2.55796 4.29268 2.4751 4.29208 2.38979V1.9025C4.29269 1.81718 4.26353 1.73433 4.20963 1.66819C4.15573 1.60206 4.08045 1.55678 3.99677 1.54017L3.73775 1.48679L3.88316 1.26591C3.93059 1.19498 3.95181 1.10974 3.94316 1.02485C3.93451 0.939966 3.89654 0.860752 3.83577 0.800849L3.49124 0.45632C3.43134 0.395573 3.35213 0.357609 3.26725 0.34896C3.18238 0.340311 3.09714 0.361519 3.02621 0.408933L2.80533 0.554346L2.75195 0.29532C2.73532 0.211638 2.69004 0.136369 2.62391 0.082469C2.55777 0.0285691 2.47491 -0.00059036 2.3896 9.22446e-06H1.90247C1.81715 -0.000595629 1.73429 0.0285619 1.66815 0.0824627C1.60201 0.136364 1.55674 0.211635 1.54011 0.29532L1.48674 0.554346L1.26585 0.40896C1.19494 0.361515 1.10969 0.340289 1.02481 0.348939C0.939923 0.357588 0.860712 0.395572 0.800822 0.456347L0.456292 0.800877C0.395535 0.860781 0.357561 0.939992 0.348907 1.02488C0.340253 1.10976 0.36146 1.195 0.408878 1.26594L0.554292 1.48685L0.29532 1.54017C0.211637 1.55678 0.136366 1.60206 0.0824652 1.66819C0.028564 1.73433 -0.000594547 1.81718 9.19048e-06 1.9025V2.38968C-0.000590394 2.47499 0.0285691 2.55785 0.082469 2.62399C0.136369 2.69013 0.211638 2.73541 0.29532 2.75204ZM0.437507 1.95754L0.783759 1.88623C0.821649 1.87844 0.856795 1.86074 0.885616 1.83494C0.914437 1.80914 0.935902 1.77616 0.947821 1.73936C0.965457 1.68485 0.986808 1.6316 1.01172 1.58001C1.02822 1.54592 1.03559 1.50813 1.0331 1.47034C1.03061 1.43255 1.01836 1.39606 0.997532 1.36443L0.804568 1.07131L1.0712 0.80465L1.35639 0.992418C1.38864 1.01365 1.42593 1.02597 1.46448 1.02812C1.50303 1.03027 1.54147 1.02218 1.57588 1.00467C1.6302 0.977022 1.68647 0.95338 1.74423 0.933931C1.78049 0.921746 1.81293 0.900264 1.83829 0.87163C1.86366 0.842996 1.88107 0.80821 1.8888 0.770744L1.95743 0.437562H2.33458L2.40324 0.770744C2.41096 0.808196 2.42837 0.84297 2.45372 0.871598C2.47907 0.900226 2.51148 0.921709 2.54772 0.933903C2.60552 0.953366 2.66181 0.977017 2.71616 1.00467C2.75058 1.02216 2.78901 1.03025 2.82755 1.0281C2.8661 1.02594 2.90339 1.01364 2.93565 0.992418L3.22084 0.80465L3.48747 1.07128L3.29453 1.36437C3.27371 1.39601 3.26146 1.43251 3.25897 1.47031C3.25649 1.5081 3.26386 1.54589 3.28037 1.57998C3.30535 1.6316 3.32675 1.68487 3.34444 1.73942C3.35636 1.77621 3.37783 1.80918 3.40665 1.83497C3.43547 1.86076 3.47061 1.87844 3.5085 1.88623L3.85467 1.95754V2.33463L3.49518 2.40868C3.45833 2.41628 3.42406 2.43325 3.39569 2.45795C3.36731 2.48266 3.34579 2.51427 3.3332 2.54972C3.31569 2.59887 3.29514 2.64689 3.27167 2.69349C3.25436 2.72785 3.24642 2.76616 3.24864 2.80457C3.25086 2.84297 3.26317 2.88011 3.28433 2.91224L3.48758 3.22098L3.22095 3.48761L2.90418 3.27906C2.87267 3.25831 2.83633 3.24607 2.79869 3.24351C2.76105 3.24096 2.72339 3.24818 2.68936 3.26448C2.64554 3.28548 2.60053 3.30391 2.55456 3.31969C2.51858 3.33202 2.48644 3.35352 2.46131 3.38207C2.43618 3.41061 2.41893 3.44522 2.41125 3.48247L2.33469 3.85461H1.95748L1.88092 3.48247C1.87325 3.44522 1.85599 3.41061 1.83086 3.38207C1.80573 3.35352 1.77359 3.33202 1.73761 3.31969C1.69164 3.3039 1.64662 3.28547 1.60278 3.26448C1.56876 3.24819 1.53111 3.24097 1.49347 3.24352C1.45584 3.24607 1.41951 3.25831 1.388 3.27906L1.07136 3.48752L0.804732 3.22087L1.00792 2.91221C1.02908 2.88008 1.04138 2.84294 1.0436 2.80454C1.04582 2.76613 1.03787 2.72782 1.02056 2.69347C0.99708 2.64684 0.976532 2.59879 0.959032 2.54961C0.946435 2.51417 0.924912 2.48258 0.896543 2.45788C0.868173 2.43318 0.833914 2.41622 0.797076 2.40863L0.437507 2.33463V1.95754ZM2.14605 3.21466C2.35739 3.21466 2.56399 3.15199 2.73972 3.03457C2.91545 2.91715 3.05241 2.75026 3.13329 2.555C3.21417 2.35975 3.23533 2.14489 3.1941 1.9376C3.15287 1.73032 3.0511 1.53991 2.90165 1.39047C2.75221 1.24102 2.5618 1.13925 2.35452 1.09802C2.14723 1.05679 1.93237 1.07795 1.73711 1.15883C1.54186 1.23971 1.37496 1.37667 1.25755 1.5524C1.14013 1.72813 1.07746 1.93473 1.07746 2.14607C1.07778 2.42938 1.19046 2.701 1.39079 2.90133C1.59112 3.10166 1.86274 3.21434 2.14605 3.21466ZM2.14605 1.51498C2.27086 1.51498 2.39288 1.552 2.49666 1.62134C2.60044 1.69069 2.68133 1.78925 2.7291 1.90457C2.77686 2.01988 2.78936 2.14677 2.76501 2.26919C2.74066 2.39161 2.68055 2.50406 2.59229 2.59232C2.50404 2.68058 2.39159 2.74069 2.26917 2.76504C2.14675 2.78939 2.01985 2.77689 1.90454 2.72913C1.78922 2.68136 1.69066 2.60047 1.62131 2.49669C1.55197 2.39291 1.51496 2.27089 1.51496 2.14607C1.51515 1.97876 1.5817 1.81835 1.70001 1.70004C1.81832 1.58173 1.97873 1.51518 2.14605 1.51498Z" fill="#F1002B"/>
</svg>
