<svg width="14" height="14" viewBox="0 0 14 14" fill="none" xmlns="http://www.w3.org/2000/svg">
<path d="M13.6692 11.7428V10.641C13.6692 10.2933 13.5337 9.96597 13.2876 9.71988C13.2154 9.64763 13.1363 9.58667 13.0528 9.53475L12.0323 7.34703C11.8246 6.90227 11.3753 6.61554 10.8831 6.61554L6.77413 6.61328C6.28421 6.61328 5.83267 6.90001 5.62496 7.34703L4.60674 9.53475C4.23422 9.76503 3.98587 10.1759 3.98587 10.6433V11.7428C3.79397 11.8105 3.65625 11.9934 3.65625 12.2079V12.7181C3.65625 12.9326 3.79397 13.1155 3.98587 13.1832V13.3909C3.98587 13.725 4.2568 13.9982 4.5932 13.9982H5.71076C6.0449 13.9982 6.31808 13.7273 6.31808 13.3909V13.2125H11.3392V13.3909C11.3392 13.725 11.6101 13.9982 11.9465 13.9982H13.0641C13.3982 13.9982 13.6714 13.7273 13.6714 13.3909V13.1832C13.8633 13.1155 14.001 12.9326 14.001 12.7181V12.2079C13.9988 11.9934 13.8611 11.8128 13.6692 11.7428ZM5.91395 9.33833L6.62513 7.80986C6.64996 7.75342 6.71092 7.71504 6.77413 7.71504L10.8809 7.7173C10.9441 7.7173 11.0051 7.75568 11.0299 7.81212L11.7433 9.33833H5.91395ZM5.05377 9.3609L5.92524 7.48701C6.07876 7.15739 6.41064 6.94516 6.77413 6.94516L10.8831 6.94742C11.2466 6.94742 11.5785 7.15964 11.732 7.48927L12.6058 9.36316C12.5268 9.34961 12.4455 9.34058 12.3642 9.34058H12.1091L11.3324 7.6744C11.2534 7.50056 11.0751 7.38767 10.8831 7.38767L6.77413 7.38541C6.57997 7.38541 6.40387 7.4983 6.32485 7.67214L5.55046 9.33833H5.29308C5.27502 9.33833 5.2547 9.34284 5.23664 9.34284C5.19374 9.3451 5.14859 9.34961 5.10795 9.35413C5.08763 9.35864 5.07183 9.35639 5.05377 9.3609ZM5.29082 9.67021L9.1831 9.66795H12.3665C12.3845 9.66795 12.4026 9.67021 12.4184 9.67021C12.4522 9.67247 12.4839 9.67472 12.5177 9.67924C12.5426 9.68375 12.5651 9.68827 12.59 9.69278C12.6284 9.70182 12.6667 9.7131 12.7029 9.72665C12.7277 9.73568 12.7525 9.74697 12.7774 9.75826C12.879 9.80567 12.9738 9.86663 13.0551 9.95016C13.2379 10.133 13.3395 10.3791 13.3395 10.6388V11.7089L8.28679 11.7134H4.31776V10.6433C4.31776 10.1082 4.75349 9.67247 5.29082 9.67021ZM5.9862 13.3909C5.9862 13.5422 5.86202 13.6663 5.71076 13.6663H4.5932C4.44193 13.6663 4.31776 13.5422 4.31776 13.3909V13.2125H5.9862V13.3909ZM13.3373 13.3909C13.3373 13.5422 13.2131 13.6663 13.0618 13.6663H11.9443C11.793 13.6663 11.6688 13.5422 11.6688 13.3909V13.2125H13.3373V13.3909ZM13.6692 12.7181C13.6692 12.8084 13.5946 12.8829 13.5043 12.8829H11.504H6.15101H4.15069C4.06038 12.8829 3.98587 12.8084 3.98587 12.7181V12.2079C3.98587 12.1176 4.05812 12.0453 4.14843 12.0431H4.15069L8.26422 12.0408H13.5021C13.5924 12.0408 13.6669 12.1153 13.6669 12.2056V12.7181H13.6692Z" fill="#F1002B"/>
<path d="M5.49164 11.3807C5.87319 11.3807 6.18249 11.0714 6.18249 10.6899C6.18249 10.3083 5.87319 9.99902 5.49164 9.99902C5.11009 9.99902 4.80078 10.3083 4.80078 10.6899C4.80078 11.0714 5.11009 11.3807 5.49164 11.3807ZM5.49164 10.3309C5.69032 10.3309 5.85061 10.4912 5.85061 10.6899C5.85061 10.8886 5.69032 11.0489 5.49164 11.0489C5.29296 11.0489 5.13266 10.8886 5.13266 10.6899C5.13041 10.4935 5.29296 10.3309 5.49164 10.3309Z" fill="#F1002B"/>
<path d="M12.1596 11.3807C12.5412 11.3807 12.8505 11.0714 12.8505 10.6899C12.8505 10.3083 12.5412 9.99902 12.1596 9.99902C11.7781 9.99902 11.4688 10.3083 11.4688 10.6899C11.471 11.0714 11.7803 11.3807 12.1596 11.3807ZM12.1596 10.3309C12.3583 10.3309 12.5186 10.4912 12.5186 10.6899C12.5186 10.8886 12.3583 11.0489 12.1596 11.0489C11.9609 11.0489 11.8006 10.8886 11.8006 10.6899C11.8006 10.4935 11.9609 10.3309 12.1596 10.3309Z" fill="#F1002B"/>
<path d="M7.53395 10.5367H10.1168C10.2071 10.5367 10.2816 10.4622 10.2816 10.3718C10.2816 10.2815 10.2071 10.207 10.1168 10.207H7.53395C7.44364 10.207 7.36914 10.2815 7.36914 10.3718C7.36914 10.4622 7.44364 10.5367 7.53395 10.5367Z" fill="#F1002B"/>
<path d="M6.91091 11.1753H10.7445C10.8348 11.1753 10.9093 11.1008 10.9093 11.0105C10.9093 10.9202 10.8348 10.8457 10.7445 10.8457H6.91091C6.8206 10.8457 6.74609 10.9202 6.74609 11.0105C6.74609 11.1008 6.81834 11.1753 6.91091 11.1753Z" fill="#F1002B"/>
<path d="M5.41397 5.74585C5.84744 5.74585 6.19739 5.39365 6.19739 4.96243V4.56733L8.64248 2.63699L10.627 3.89002L10.0197 4.59442C9.93162 4.69827 9.88873 4.82922 9.89776 4.96468C9.90679 5.10014 9.97 5.22432 10.0739 5.31237L10.0784 5.31688L9.46654 6.0258C9.40784 6.09579 9.41461 6.19964 9.4846 6.25834C9.51621 6.28544 9.55459 6.29898 9.59297 6.29898C9.64038 6.29898 9.68553 6.27866 9.71714 6.24254L10.329 5.53362L10.3335 5.53814C10.4261 5.61942 10.5435 5.66231 10.6654 5.66231C10.6789 5.66231 10.6902 5.66231 10.7038 5.66005C10.8392 5.65102 10.9634 5.58781 11.0514 5.48621L11.8462 4.56507C12.3067 4.50637 12.6634 4.11805 12.6634 3.64167C12.6634 3.18561 12.3338 2.80406 11.9003 2.72504L9.84357 0.878245C9.67425 0.365747 9.19336 0 8.62893 0C8.06676 0 7.58813 0.36349 7.41429 0.869215L6.13869 1.89873C6.02129 1.61426 5.74133 1.41332 5.41397 1.41332H3.29398C2.86051 1.41332 2.51056 1.76552 2.51056 2.19674C2.51056 2.44735 2.30737 2.65054 2.05676 2.65054H1.36817V1.19207C1.36817 0.73601 0.997904 0.365747 0.541848 0.365747H0.329624V0.164812C0.329624 0.0745041 0.257378 0 0.164812 0C0.0722464 0 0 0.0745041 0 0.164812V0.528302V6.62861V6.9921C0 7.08241 0.0745041 7.15691 0.164812 7.15691C0.25512 7.15691 0.329624 7.08241 0.329624 6.9921V6.79568H0.541848C0.997904 6.79568 1.36817 6.42542 1.36817 5.96936V5.74585H5.41397ZM6.19964 4.14514V2.27802L7.34656 1.3501C7.34656 1.35462 7.34881 1.35914 7.34881 1.36365C7.35559 1.49234 7.38268 1.61426 7.42558 1.7294C7.42783 1.73843 7.43235 1.7452 7.43461 1.75423C7.45718 1.81068 7.48202 1.8626 7.51137 1.91453C7.51588 1.9213 7.5204 1.92808 7.52492 1.93485C7.55201 1.98 7.58136 2.02516 7.61522 2.0658C7.61974 2.07257 7.62651 2.0816 7.63103 2.08837C7.66715 2.13127 7.70327 2.17191 7.74391 2.21029C7.7552 2.22158 7.76649 2.23061 7.77778 2.23964C7.8139 2.27125 7.85228 2.30285 7.89292 2.3322C7.90195 2.33898 7.91098 2.34575 7.92001 2.35027C7.96291 2.37962 8.00806 2.40445 8.05322 2.42703C8.07128 2.43606 8.08708 2.44509 8.10514 2.45186C8.15256 2.47444 8.20222 2.4925 8.25189 2.5083C8.25641 2.51056 8.25867 2.51056 8.26318 2.51282L6.19964 4.14514ZM10.8031 5.26721C10.7737 5.30334 10.7308 5.32366 10.6834 5.32817C10.6338 5.33043 10.5886 5.31688 10.5525 5.28528L10.2906 5.05951C10.2545 5.0279 10.2319 4.985 10.2296 4.93759C10.2251 4.89018 10.2409 4.84502 10.2725 4.8089L10.9047 4.07515C10.9115 4.0887 10.9228 4.09998 10.9318 4.11579C10.9476 4.14288 10.9657 4.16997 10.9837 4.19481C11.0018 4.21738 11.0198 4.23996 11.0379 4.26028C11.0582 4.28286 11.0808 4.30543 11.1034 4.32575C11.1237 4.34607 11.1463 4.36413 11.1688 4.37994C11.1937 4.398 11.2185 4.41606 11.2456 4.43187C11.2704 4.44541 11.293 4.45896 11.3201 4.4725C11.3495 4.48605 11.3788 4.4996 11.4082 4.51089C11.4194 4.5154 11.4285 4.52217 11.4398 4.52443L10.8031 5.26721ZM12.3361 3.63941C12.3361 3.96904 12.0719 4.23545 11.7423 4.24222C11.7378 4.24222 11.7333 4.24222 11.7288 4.24222C11.722 4.24222 11.7152 4.23996 11.7084 4.23996C11.6791 4.23996 11.652 4.23545 11.6249 4.23093C11.6114 4.22867 11.5978 4.22416 11.5843 4.2219C11.5617 4.21738 11.5414 4.21061 11.521 4.20158C11.5098 4.19706 11.4962 4.19255 11.4849 4.18803C11.4556 4.17449 11.4262 4.15868 11.3991 4.14062C11.3924 4.13611 11.3856 4.12933 11.3766 4.12482C11.3562 4.10901 11.3359 4.09321 11.3179 4.07515C11.3088 4.06612 11.2998 4.05709 11.2908 4.04806C11.275 4.03225 11.2614 4.01419 11.2479 3.99387C11.2411 3.98484 11.2321 3.97355 11.2253 3.96452C11.2072 3.93517 11.1892 3.90582 11.1756 3.87421C11.144 3.79745 11.1282 3.71617 11.1282 3.63716C11.1282 3.59426 11.1327 3.55136 11.1418 3.51072C11.144 3.50169 11.1463 3.49492 11.1485 3.48589C11.1576 3.45428 11.1666 3.42042 11.1801 3.39107C11.1846 3.38204 11.1892 3.37526 11.1937 3.36849C11.2072 3.33914 11.223 3.31205 11.2433 3.28495C11.2501 3.27592 11.2569 3.26915 11.2637 3.26012C11.2817 3.23754 11.302 3.21497 11.3224 3.1969C11.3337 3.18562 11.3449 3.17658 11.3585 3.16755C11.3766 3.15401 11.3946 3.1382 11.4149 3.12691C11.433 3.11563 11.4511 3.1066 11.4691 3.09756C11.4849 3.08853 11.503 3.08176 11.5188 3.07499C11.5414 3.06596 11.5639 3.05918 11.5865 3.05467C11.6046 3.05015 11.6204 3.0479 11.6384 3.04338C11.6588 3.03886 11.6813 3.03886 11.7039 3.03661C11.731 3.03661 11.7581 3.03661 11.7875 3.03886C12.0945 3.06821 12.3361 3.32333 12.3361 3.63941ZM11.4059 2.76794C11.3833 2.77697 11.363 2.786 11.3404 2.79503C11.3088 2.80858 11.2795 2.82664 11.2501 2.8447C11.2321 2.85599 11.2163 2.86502 11.1982 2.87631C11.1553 2.90566 11.1147 2.93953 11.0785 2.97565C11.0672 2.98694 11.0582 2.99823 11.0492 3.00951C11.0221 3.03886 10.9973 3.06821 10.9747 3.09982C10.9634 3.11563 10.9521 3.13143 10.9431 3.14949C10.9228 3.1811 10.907 3.21271 10.8911 3.24657C10.8821 3.26463 10.8753 3.28044 10.8686 3.2985C10.8505 3.3414 10.837 3.38655 10.8279 3.4317C10.8257 3.44074 10.8234 3.44977 10.8212 3.4588C10.8121 3.50847 10.8054 3.55814 10.8031 3.6078L9.05338 2.50379C9.06467 2.49927 9.07596 2.49476 9.08724 2.49024C9.12337 2.4767 9.15949 2.46089 9.19336 2.44509C9.20916 2.43832 9.22271 2.43154 9.23851 2.42477C9.28366 2.39994 9.32656 2.37284 9.36946 2.34349C9.383 2.33446 9.39429 2.32543 9.40784 2.31414C9.4417 2.28705 9.47557 2.25996 9.50718 2.23061C9.51621 2.22158 9.52524 2.2148 9.53427 2.20577C9.57265 2.16739 9.60877 2.12675 9.64264 2.08611C9.64941 2.07708 9.65618 2.06805 9.66296 2.05902C9.69231 2.02064 9.7194 1.98 9.74423 1.93711C9.74875 1.93033 9.75326 1.92356 9.75552 1.91679C9.78262 1.86712 9.80745 1.81519 9.82777 1.76326C9.83003 1.75423 9.83454 1.74746 9.8368 1.73843C9.85035 1.68424 9.86615 1.63232 9.8797 1.58039C9.88195 1.57362 9.88195 1.5691 9.88421 1.56233C9.89776 1.50589 9.90453 1.44719 9.90905 1.38623C9.90905 1.38171 9.9113 1.37945 9.9113 1.37494L11.442 2.74988C11.4285 2.75665 11.4172 2.76117 11.4059 2.76794ZM8.62893 0.329624C9.07821 0.329624 9.45299 0.643445 9.55459 1.06112C9.5591 1.07918 9.56362 1.09724 9.56588 1.1153C9.57491 1.16497 9.58168 1.2169 9.58168 1.27109V1.28463C9.58168 1.80842 9.15949 2.23287 8.62216 2.23964C8.31737 2.23738 8.0487 2.09063 7.87486 1.86712C7.75294 1.70456 7.67618 1.50363 7.67618 1.28463C7.67618 1.28012 7.67618 1.2756 7.67618 1.27334C7.67618 1.21916 7.68295 1.16723 7.69198 1.11756C7.69424 1.0995 7.69876 1.08144 7.70327 1.06338C7.80487 0.643445 8.17965 0.329624 8.62893 0.329624ZM2.05676 2.98242C2.49024 2.98242 2.84019 2.63022 2.84019 2.199C2.84019 1.9484 3.04338 1.7452 3.29398 1.7452H5.41397C5.66457 1.7452 5.86776 1.9484 5.86776 2.199V4.48831V4.96468C5.86776 5.21529 5.66457 5.41848 5.41397 5.41848H1.36817V2.98242H2.05676ZM1.03854 5.96936C1.03854 6.24254 0.81503 6.46605 0.541848 6.46605H0.329624V0.695372H0.541848C0.81503 0.695372 1.03854 0.918884 1.03854 1.19207V2.81761V5.58329V5.96936Z" fill="#F1002B"/>
<path d="M3.65505 4.7164H5.00289C5.0932 4.7164 5.16771 4.6419 5.16771 4.55159C5.16771 4.46128 5.0932 4.38678 5.00289 4.38678H3.65505C3.56474 4.38678 3.49023 4.46128 3.49023 4.55159C3.49023 4.6419 3.56248 4.7164 3.65505 4.7164Z" fill="#F1002B"/>
<path d="M3.65505 2.77695H5.00289C5.0932 2.77695 5.16771 2.70245 5.16771 2.61214C5.16771 2.52183 5.0932 2.44733 5.00289 2.44733H3.65505C3.56474 2.44733 3.49023 2.52183 3.49023 2.61214C3.49023 2.70245 3.56248 2.77695 3.65505 2.77695Z" fill="#F1002B"/>
<path d="M3.65505 3.74552H5.00289C5.0932 3.74552 5.16771 3.67101 5.16771 3.58071C5.16771 3.4904 5.0932 3.41589 5.00289 3.41589H3.65505C3.56474 3.41589 3.49023 3.4904 3.49023 3.58071C3.49023 3.67101 3.56248 3.74552 3.65505 3.74552Z" fill="#F1002B"/>
<path d="M8.62918 1.85114C8.94075 1.85114 9.19587 1.59602 9.19587 1.28446C9.19587 0.972894 8.94075 0.717773 8.62918 0.717773C8.31762 0.717773 8.0625 0.972894 8.0625 1.28446C8.0625 1.59602 8.31762 1.85114 8.62918 1.85114ZM8.62918 1.04966C8.76013 1.04966 8.86398 1.15577 8.86398 1.28446C8.86398 1.41315 8.75787 1.51926 8.62918 1.51926C8.49824 1.51926 8.39212 1.41315 8.39212 1.28446C8.39212 1.15577 8.50049 1.04966 8.62918 1.04966Z" fill="#F1002B"/>
<path d="M11.7347 3.46289C11.6444 3.46289 11.5586 3.54868 11.5586 3.63899C11.5586 3.7293 11.6444 3.81509 11.7347 3.81509C11.825 3.81509 11.9108 3.7293 11.9108 3.63899C11.9108 3.54868 11.825 3.46289 11.7347 3.46289Z" fill="#F1002B"/>
</svg>
