<svg width="14" height="14" viewBox="0 0 14 14" fill="none" xmlns="http://www.w3.org/2000/svg">
<path id="Vector" d="M7.57298 0.585226C7.57298 0.430262 7.63454 0.281645 7.74411 0.172069C7.85369 0.0624924 8.00231 0.000933097 8.15727 0.000933097C9.70639 0.00263432 11.1916 0.618773 12.287 1.71417C13.3824 2.80956 13.9985 4.29474 14.0002 5.84386C14.0002 5.99883 13.9386 6.14745 13.8291 6.25702C13.7195 6.3666 13.5709 6.42816 13.4159 6.42816C13.2609 6.42816 13.1123 6.3666 13.0027 6.25702C12.8932 6.14745 12.8316 5.99883 12.8316 5.84386C12.8302 4.60458 12.3373 3.41645 11.461 2.54014C10.5847 1.66383 9.39656 1.17091 8.15727 1.16952C8.00231 1.16952 7.85369 1.10796 7.74411 0.998384C7.63454 0.888808 7.57298 0.74019 7.57298 0.585226ZM8.15727 3.50669C8.77713 3.50669 9.3716 3.75293 9.8099 4.19123C10.2482 4.62954 10.4944 5.22401 10.4944 5.84386C10.4944 5.99883 10.556 6.14745 10.6656 6.25702C10.7752 6.3666 10.9238 6.42816 11.0787 6.42816C11.2337 6.42816 11.3823 6.3666 11.4919 6.25702C11.6015 6.14745 11.663 5.99883 11.663 5.84386C11.6621 4.91436 11.2924 4.0232 10.6352 3.36594C9.97793 2.70869 9.08677 2.33903 8.15727 2.33811C8.00231 2.33811 7.85369 2.39966 7.74411 2.50924C7.63454 2.61882 7.57298 2.76743 7.57298 2.9224C7.57298 3.07736 7.63454 3.22598 7.74411 3.33556C7.85369 3.44513 8.00231 3.50669 8.15727 3.50669ZM13.4702 9.78142C13.8089 10.121 13.999 10.5809 13.999 11.0604C13.999 11.54 13.8089 11.9999 13.4702 12.3395L12.9385 12.9524C8.15318 17.5338 -3.49178 5.89178 1.01896 1.09122L1.6909 0.506931C2.03082 0.177785 2.48667 -0.00429686 2.95981 7.70154e-05C3.43296 0.00445089 3.88535 0.194929 4.21914 0.530303C4.23725 0.548416 5.31994 1.95481 5.31994 1.95481C5.6412 2.29231 5.82004 2.74064 5.81928 3.2066C5.81852 3.67256 5.63822 4.1203 5.31585 4.45675L4.63924 5.30748C5.01369 6.21729 5.56421 7.04415 6.2592 7.74054C6.95418 8.43692 7.77993 8.98912 8.68898 9.3654L9.54497 8.6847C9.88146 8.36259 10.3291 8.18249 10.7949 8.18184C11.2608 8.18119 11.7089 8.36002 12.0463 8.68119C12.0463 8.68119 13.4521 9.7633 13.4702 9.78142ZM12.6663 10.631C12.6663 10.631 11.268 9.55529 11.2499 9.53718C11.1296 9.41783 10.9669 9.35086 10.7974 9.35086C10.6279 9.35086 10.4652 9.41783 10.3449 9.53718C10.3291 9.55354 9.15057 10.4925 9.15057 10.4925C9.07115 10.5557 8.97663 10.5972 8.87633 10.6127C8.77602 10.6283 8.67339 10.6175 8.57855 10.5813C7.40088 10.1428 6.3312 9.4564 5.44196 8.56847C4.55273 7.68054 3.8647 6.61188 3.4245 5.43486C3.38546 5.33872 3.37274 5.23391 3.38763 5.13122C3.40252 5.02853 3.44449 4.93166 3.50922 4.85057C3.50922 4.85057 4.44818 3.67146 4.46395 3.65627C4.58331 3.5359 4.65027 3.37325 4.65027 3.20374C4.65027 3.03422 4.58331 2.87157 4.46395 2.7512C4.44584 2.73367 3.37016 1.33429 3.37016 1.33429C3.24798 1.22474 3.08853 1.16607 2.92449 1.17031C2.76044 1.17454 2.60423 1.24137 2.48787 1.35708L1.81594 1.94137C-1.48064 5.90522 8.61068 15.4368 12.0843 12.1542L12.6166 11.5407C12.7413 11.4252 12.8163 11.2657 12.8255 11.0959C12.8348 10.9261 12.7777 10.7594 12.6663 10.631Z" fill="#ED2939"/>
</svg>
