<svg width="586" height="429" viewBox="0 0 586 429" fill="none" xmlns="http://www.w3.org/2000/svg">
<path d="M373.782 197.513L375.125 197.406C375.564 197.406 376.111 197.264 376.764 197.157C377.503 196.983 378.229 196.761 378.938 196.492C380.932 195.724 382.733 194.528 384.213 192.987C385.148 192.005 385.947 190.902 386.589 189.708C387.302 188.336 387.795 186.86 388.051 185.336C388.385 183.375 388.311 181.366 387.833 179.435C387.355 177.504 386.484 175.692 385.274 174.113C384.064 172.534 382.542 171.222 380.801 170.258C379.061 169.295 377.141 168.7 375.16 168.513C373.972 168.43 372.784 168.442 371.596 168.442H360.179H343.356L159.042 168.525C155.73 168.541 152.525 169.699 149.967 171.802C147.409 173.906 145.655 176.827 144.999 180.073C144.582 182.194 144.643 184.381 145.177 186.476C145.993 189.572 147.821 192.306 150.37 194.244C152.919 196.181 156.042 197.211 159.244 197.169H165.635H214.571L297.438 197.228L353.276 197.335H368.46H372.416H373.758C373.758 197.335 373.307 197.335 372.416 197.335H368.46L353.276 197.394L297.438 197.49L214.571 197.561H159.244C157.043 197.598 154.863 197.139 152.864 196.218C150.828 195.302 149.023 193.941 147.584 192.234C146.145 190.527 145.107 188.519 144.547 186.357C143.974 184.168 143.91 181.876 144.361 179.657C144.812 177.439 145.766 175.354 147.149 173.562C148.548 171.741 150.347 170.265 152.407 169.249C154.467 168.234 156.733 167.705 159.03 167.705L343.344 167.8H360.167H371.608C372.796 167.8 373.984 167.8 375.172 167.883C377.584 168.127 379.898 168.96 381.912 170.309C383.926 171.658 385.578 173.481 386.722 175.618C387.866 177.754 388.467 180.14 388.473 182.563C388.479 184.987 387.889 187.375 386.756 189.518C386.089 190.722 385.271 191.836 384.32 192.832C382.804 194.371 380.972 195.563 378.95 196.325C378.229 196.588 377.49 196.802 376.74 196.967C376.087 197.062 375.552 197.157 375.101 197.193C374.245 197.513 373.782 197.513 373.782 197.513Z" fill="#D3DAE9"/>
<path d="M373.783 197.514H345.686V168.265H373.783C377.662 168.265 381.382 169.805 384.124 172.548C386.867 175.291 388.408 179.011 388.408 182.89C388.408 186.768 386.867 190.488 384.124 193.231C381.382 195.974 377.662 197.514 373.783 197.514Z" fill="##ED2939"/>
<path d="M368.876 180.132C368.816 180.132 368.816 179.645 368.579 178.802C368.238 177.632 367.519 176.609 366.535 175.891C365.927 175.436 365.228 175.117 364.486 174.956C363.744 174.794 362.976 174.794 362.234 174.956C361.491 175.118 360.793 175.437 360.185 175.892C359.577 176.347 359.074 176.928 358.71 177.595C358.346 178.262 358.13 178.999 358.076 179.756C358.022 180.514 358.131 181.274 358.397 181.986C358.662 182.698 359.078 183.344 359.615 183.881C360.152 184.418 360.798 184.833 361.51 185.098C362.343 185.403 363.239 185.497 364.118 185.373C364.997 185.249 365.831 184.91 366.547 184.385C367.526 183.66 368.24 182.633 368.579 181.463C368.816 180.631 368.816 180.132 368.876 180.132C368.898 180.254 368.898 180.379 368.876 180.501C368.895 180.844 368.863 181.188 368.781 181.522C368.506 182.793 367.796 183.928 366.773 184.73C366.006 185.331 365.1 185.728 364.138 185.886C363.177 186.044 362.191 185.957 361.272 185.633C360.138 185.229 359.157 184.484 358.464 183.5C357.77 182.516 357.397 181.342 357.397 180.138C357.397 178.934 357.77 177.76 358.464 176.776C359.157 175.793 360.138 175.048 361.272 174.643C362.19 174.315 363.176 174.224 364.138 174.38C365.1 174.536 366.006 174.933 366.773 175.534C367.794 176.339 368.503 177.473 368.781 178.742C368.863 179.08 368.895 179.429 368.876 179.776C368.899 179.894 368.899 180.015 368.876 180.132Z" fill="#4D5057"/>
<path d="M376.349 189.434C374.75 188.718 373.235 187.825 371.834 186.773C370.328 185.892 368.928 184.84 367.664 183.637C370.785 185.222 373.701 187.181 376.349 189.47V189.434Z" fill="##ED2939"/>
<path d="M162.57 191.11C162.262 188.35 162.159 185.57 162.261 182.794C162.158 180.018 162.262 177.238 162.57 174.478C162.878 177.238 162.981 180.018 162.879 182.794C162.981 185.57 162.878 188.35 162.57 191.11Z" fill="#C1C1C1"/>
<path d="M197.202 247.958H127V315.879H197.202V247.958Z" fill="#757575"/>
<path d="M192 253H132V310H192V253Z" fill="#4D5057"/>
<path d="M132.453 310.07L151.866 275.117L167.75 297.453L177.409 285.596L191.761 310.07H132.453Z" fill="#757575"/>
<path d="M174.523 268.322C174.525 269.324 174.23 270.304 173.675 271.138C173.119 271.972 172.329 272.623 171.404 273.007C170.478 273.392 169.46 273.493 168.477 273.298C167.494 273.103 166.591 272.621 165.883 271.912C165.174 271.204 164.692 270.301 164.497 269.318C164.302 268.335 164.403 267.317 164.788 266.391C165.172 265.466 165.823 264.676 166.657 264.12C167.491 263.565 168.471 263.27 169.473 263.272C170.813 263.272 172.097 263.804 173.044 264.751C173.991 265.698 174.523 266.983 174.523 268.322Z" fill="#757575"/>
<path d="M191.714 310.26C191.714 310.26 191.714 310.153 191.714 309.975C191.714 309.797 191.714 309.512 191.714 309.191C191.714 308.462 191.714 307.441 191.714 306.126C191.714 303.441 191.714 299.544 191.631 294.602C191.631 284.682 191.548 270.544 191.488 253.59L191.773 253.875H132.466C132.383 253.947 133.095 253.246 132.798 253.555V261.218C132.798 263.768 132.798 266.291 132.798 268.785V283.434C132.798 292.939 132.798 301.932 132.798 310.213L132.513 309.916L175.39 310.07L187.496 310.142H190.704H191.536H191.821H191.571H190.764H187.615L175.58 310.225L132.513 310.367H132.216V310.082C132.216 301.766 132.216 292.808 132.216 283.303V268.845C132.216 266.35 132.216 263.827 132.216 261.277V253.614C131.919 253.899 132.632 253.186 132.561 253.269H191.868H192.165V253.555C192.094 270.591 192.047 284.777 192.011 294.744C192.011 299.663 191.952 303.536 191.94 306.209C191.94 307.504 191.94 308.502 191.94 309.215C191.94 309.536 191.94 309.785 191.94 309.975C191.882 310.083 191.806 310.18 191.714 310.26Z" fill="#C1C1C1"/>
<path d="M308.95 247.958H238.748V315.879H308.95V247.958Z" fill="#757575"/>
<path d="M304 253H244V310H304V253Z" fill="#4D5057"/>
<path d="M244.189 310.07L263.614 275.117L279.498 297.453L289.145 285.596L303.509 310.07H244.189Z" fill="#757575"/>
<path d="M286.259 268.322C286.259 269.32 285.962 270.297 285.408 271.127C284.853 271.957 284.064 272.604 283.142 272.987C282.219 273.369 281.204 273.469 280.224 273.274C279.245 273.079 278.345 272.598 277.639 271.892C276.933 271.186 276.452 270.286 276.257 269.307C276.062 268.327 276.162 267.312 276.545 266.389C276.927 265.467 277.574 264.678 278.404 264.123C279.235 263.569 280.211 263.272 281.209 263.272C282.549 263.272 283.833 263.804 284.78 264.751C285.727 265.698 286.259 266.983 286.259 268.322Z" fill="#757575"/>
<path d="M303.509 310.26C303.509 310.26 303.509 310.153 303.509 309.975C303.509 309.797 303.509 309.512 303.509 309.191C303.509 308.462 303.509 307.441 303.509 306.126C303.509 303.441 303.509 299.544 303.438 294.602C303.438 284.682 303.354 270.544 303.295 253.59L303.58 253.875H244.273L244.593 253.555V268.785C244.593 273.775 244.593 278.654 244.593 283.422C244.593 292.927 244.593 301.92 244.593 310.201L244.296 309.904L287.185 310.058L299.279 310.13H302.487H303.319H303.616H303.354H302.558H299.398L287.375 310.213L244.296 310.355H244.011V310.07C244.011 301.754 244.011 292.796 244.011 283.292C244.011 278.539 244.011 273.66 244.011 268.655V253.614C243.714 253.899 244.415 253.186 244.356 253.269H303.663H303.948V253.555C303.948 270.591 303.841 284.777 303.806 294.744C303.806 299.663 303.746 303.536 303.723 306.209C303.723 307.504 303.723 308.502 303.723 309.215C303.723 309.536 303.723 309.785 303.723 309.975C303.66 310.077 303.589 310.172 303.509 310.26Z" fill="#C1C1C1"/>
<path d="M420.698 247.958H350.496V315.879H420.698V247.958Z" fill="#757575"/>
<path d="M415 253H356V310H415V253Z" fill="#4D5057"/>
<path d="M355.938 310.07L375.35 275.117L391.235 297.453L400.893 285.596L415.245 310.07H355.938Z" fill="#757575"/>
<path d="M398.006 268.322C398.008 269.324 397.713 270.304 397.158 271.138C396.603 271.972 395.812 272.623 394.887 273.007C393.962 273.392 392.943 273.493 391.96 273.298C390.978 273.103 390.075 272.621 389.366 271.912C388.658 271.204 388.175 270.301 387.98 269.318C387.786 268.335 387.887 267.317 388.271 266.391C388.656 265.466 389.306 264.676 390.14 264.12C390.975 263.565 391.955 263.27 392.957 263.272C394.296 263.272 395.58 263.804 396.527 264.751C397.474 265.698 398.006 266.983 398.006 268.322Z" fill="#757575"/>
<path d="M415.257 310.26C415.249 310.165 415.249 310.07 415.257 309.975C415.257 309.773 415.257 309.512 415.257 309.191C415.257 308.462 415.257 307.441 415.257 306.126C415.257 303.441 415.257 299.544 415.186 294.602C415.186 284.682 415.091 270.544 415.032 253.59L415.329 253.875H356.009C355.938 253.947 356.639 253.246 356.342 253.555V268.785C356.342 273.775 356.342 278.654 356.342 283.422C356.342 292.927 356.342 301.92 356.342 310.201L356.057 309.904L398.945 310.058L411.04 310.13H414.247H415.079H415.376H415.115H414.307H411.158L399.123 310.213L356.057 310.355H355.665V310.07C355.665 301.754 355.665 292.796 355.665 283.292C355.665 278.539 355.665 273.66 355.665 268.655V253.614C355.368 253.899 356.068 253.186 355.997 253.269H415.317H415.602V253.555C415.602 270.591 415.483 284.777 415.447 294.744C415.447 299.663 415.447 303.536 415.376 306.209C415.376 307.504 415.376 308.502 415.376 309.215C415.376 309.536 415.376 309.785 415.376 309.975C415.376 310.165 415.257 310.26 415.257 310.26Z" fill="#C1C1C1"/>
<path d="M438.246 276.271L399.018 222.834C401.343 221.044 403.519 219.068 405.526 216.927C413.891 207.973 418.964 196.442 419.913 184.226C420.863 172.01 417.633 159.834 410.752 149.695C403.872 139.556 393.75 132.056 382.047 128.426C370.344 124.796 357.755 125.251 346.344 129.716C334.934 134.182 325.38 142.393 319.25 153.002C313.119 163.611 310.776 175.989 312.606 188.105C314.435 200.221 320.327 211.355 329.317 219.682C338.306 228.008 349.858 233.033 362.078 233.931C364.005 234.072 365.938 234.107 367.869 234.036C375.722 233.795 383.427 231.836 390.442 228.298L430.071 282.283C430.872 283.362 432.069 284.078 433.397 284.276C434.726 284.474 436.079 284.136 437.16 283.338C438.237 282.542 438.956 281.352 439.159 280.028C439.363 278.704 439.035 277.354 438.246 276.271ZM367.574 223.91C366.005 223.961 364.435 223.933 362.869 223.826C351.653 223.017 341.174 217.935 333.595 209.628C326.015 201.32 321.912 190.421 322.133 179.177C322.353 167.934 326.88 157.203 334.78 149.199C342.679 141.196 353.349 136.528 364.589 136.16C366.175 136.107 367.763 136.139 369.346 136.255C380.545 137.092 390.998 142.189 398.553 150.497C406.109 158.806 410.194 169.694 409.967 180.922C409.74 192.15 405.218 202.864 397.333 210.86C389.448 218.856 378.798 223.526 367.574 223.91Z" fill="white"/>
<rect x="71.5" y="49.5" width="443" height="328" rx="19.5" stroke="#D8D8D8" stroke-dasharray="5 5"/>
<path d="M8.248 91L85.6715 78.9466L77.4235 28L0 40.0466L8.248 91Z" fill="#757575"/>
<path d="M10.9502 87.3219L81.9494 76.2747L74.7238 31.6709L3.72461 42.7182L10.9502 87.3219Z" fill="#4D5057"/>
<path d="M12.3866 55.6222C12.6348 57.1229 13.3291 58.5176 14.3819 59.6304C15.4347 60.7431 16.7988 61.524 18.3022 61.8745C19.8055 62.2251 21.3807 62.1294 22.8288 61.5998C24.277 61.0701 25.5333 60.1302 26.4392 58.8985C27.3451 57.6669 27.86 56.1988 27.9189 54.6794C27.9777 53.1601 27.578 51.6576 26.77 50.3616C25.9621 49.0657 24.7822 48.0343 23.3792 47.3976C21.9762 46.7609 20.413 46.5475 18.8869 46.7843C17.8698 46.9431 16.8944 47.2978 16.0168 47.8283C15.1392 48.3587 14.3766 49.0543 13.7728 49.8754C13.1689 50.6964 12.7356 51.6267 12.4977 52.6128C12.2599 53.599 12.2221 54.6216 12.3866 55.6222Z" fill="#23242F"/>
<path d="M33.0068 83.9635L81.9077 76.3561L52.2176 47.5381L33.0068 83.9635Z" fill="#757575"/>
<path d="M13.8359 86.9608L54.2125 80.6791L30.6152 62.5752L13.8359 86.9608Z" fill="#23242F"/>
<path d="M23 221.896L81.1461 226.927L84.4686 188.031L26.3162 183L23 221.896Z" fill="#757575"/>
<path d="M25.625 219.685L78.9413 224.295L81.843 190.242L28.5204 185.632L25.625 219.685Z" fill="#4D5057"/>
<path d="M32.4777 196.666C32.3784 197.815 32.6221 198.966 33.1779 199.976C33.7338 200.985 34.5767 201.807 35.5999 202.337C36.6232 202.868 37.7807 203.082 38.926 202.954C40.0712 202.826 41.1527 202.36 42.0334 201.617C42.9141 200.874 43.5544 199.886 43.8731 198.778C44.1919 197.671 44.1749 196.494 43.8242 195.396C43.4735 194.298 42.8049 193.329 41.9031 192.612C41.0013 191.894 39.9068 191.461 38.7583 191.366C37.2232 191.239 35.7002 191.725 34.523 192.719C33.3458 193.712 32.6104 195.132 32.4777 196.666Z" fill="#23242F"/>
<path d="M42.1748 221.168L78.9039 224.346L62.6874 197.86L42.1748 221.168Z" fill="#757575"/>
<path d="M27.7734 219.936L58.0963 222.555L44.3355 205.032L27.7734 219.936Z" fill="#23242F"/>
<path d="M5 387.269L77.1639 394.243L81.7759 345.974L9.61707 339L5 387.269Z" fill="#757575"/>
<path d="M8.28711 384.555L74.4584 390.952L78.4939 348.69L12.3176 342.293L8.28711 384.555Z" fill="#4D5057"/>
<path d="M17.0608 356.047C16.9234 357.471 17.2112 358.903 17.8879 360.163C18.5645 361.423 19.5996 362.454 20.8623 363.126C22.1249 363.798 23.5584 364.08 24.9814 363.937C26.4045 363.794 27.7532 363.233 28.8571 362.323C29.9609 361.414 30.7703 360.198 31.183 358.828C31.5956 357.459 31.5929 355.998 31.1752 354.63C30.7575 353.262 29.9436 352.049 28.8364 351.143C27.7292 350.238 26.3784 349.681 24.9548 349.544C23.0459 349.361 21.1422 349.943 19.6621 351.162C18.1819 352.381 17.2463 354.138 17.0608 356.047Z" fill="#23242F"/>
<path d="M28.8281 386.607L74.4072 391.012L54.6038 357.919L28.8281 386.607Z" fill="#23242F"/>
<path d="M10.957 384.893L48.5915 388.529L31.7212 366.597L10.957 384.893Z" fill="#757575"/>
<path d="M496.894 100.509L561.612 90.2718L554.717 47L490 57.2319L496.894 100.509Z" fill="#757575"/>
<path d="M499.153 97.3847L558.5 88.0017L552.46 50.1172L493.113 59.5002L499.153 97.3847Z" fill="#4D5057"/>
<path d="M500.354 70.4602C500.561 71.7349 501.141 72.9195 502.021 73.8646C502.901 74.8098 504.042 75.473 505.298 75.7707C506.555 76.0685 507.872 75.9872 509.082 75.5374C510.293 75.0875 511.343 74.2892 512.1 73.2431C512.857 72.1969 513.287 70.95 513.337 69.6595C513.386 68.369 513.052 67.0929 512.376 65.9922C511.701 64.8914 510.715 64.0154 509.542 63.4747C508.369 62.9339 507.063 62.7527 505.787 62.9538C504.937 63.0886 504.122 63.3899 503.388 63.8404C502.654 64.291 502.017 64.8818 501.512 65.5792C501.007 66.2765 500.645 67.0666 500.446 67.9042C500.248 68.7418 500.216 69.6104 500.354 70.4602Z" fill="#23242F"/>
<path d="M517.59 94.5328L558.465 88.0715L533.648 63.5947L517.59 94.5328Z" fill="#757575"/>
<path d="M501.565 97.0792L535.316 91.7439L515.591 76.3672L501.565 97.0792Z" fill="#23242F"/>
<path d="M284.979 49.8354L346.199 73.1871L361.769 32.2295L300.553 8.87281L284.979 49.8354Z" fill="#757575"/>
<path d="M288.494 48.2509L344.631 69.6694L358.26 33.8091L302.123 12.3907L288.494 48.2509Z" fill="#4D5057"/>
<path d="M302.943 25.5003C302.488 26.7089 302.402 28.0252 302.694 29.2831C302.987 30.5409 303.645 31.6839 304.587 32.5679C305.528 33.4519 306.71 34.0372 307.984 34.2499C309.258 34.4626 310.566 34.2933 311.744 33.7632C312.921 33.2332 313.915 32.3662 314.601 31.2716C315.286 30.1771 315.632 28.904 315.594 27.6132C315.557 26.3223 315.138 25.0715 314.39 24.0185C313.643 22.9656 312.6 22.1577 311.393 21.6968C310.589 21.3903 309.732 21.2456 308.871 21.2709C308.011 21.2963 307.164 21.4912 306.379 21.8446C305.594 22.1979 304.886 22.7027 304.297 23.33C303.707 23.9574 303.247 24.6949 302.943 25.5003Z" fill="#23242F"/>
<path d="M305.901 54.9586L344.565 69.7117L335.234 36.1269L305.901 54.9586Z" fill="#757575"/>
<path d="M290.738 49.1865L322.662 61.3676L313.215 38.2104L290.738 49.1865Z" fill="#23242F"/>
<path d="M342.762 423.567L397.442 391.004L375.621 354.454L320.936 387.021L342.762 423.567Z" fill="#757575"/>
<path d="M343.679 419.938L393.815 390.078L374.705 358.082L324.563 387.947L343.679 419.938Z" fill="#4D5057"/>
<path d="M335.091 395.198C335.734 396.277 336.683 397.142 337.818 397.682C338.952 398.222 340.222 398.413 341.465 398.231C342.709 398.049 343.87 397.502 344.802 396.659C345.735 395.816 346.396 394.716 346.702 393.497C347.009 392.279 346.947 390.996 346.524 389.813C346.101 388.63 345.337 387.598 344.327 386.85C343.318 386.101 342.109 385.669 340.854 385.608C339.599 385.547 338.354 385.859 337.277 386.506C335.837 387.371 334.798 388.772 334.388 390.401C333.979 392.03 334.231 393.755 335.091 395.198Z" fill="#23242F"/>
<path d="M359.273 410.715L393.813 390.147L362.596 377.023L359.273 410.715Z" fill="#757575"/>
<path d="M345.74 418.793L374.253 401.808L350.915 395.055L345.74 418.793Z" fill="#23242F"/>
<path d="M493 277.423L572.851 297L585.886 243.577L506.035 224L493 277.423Z" fill="#757575"/>
<path d="M497.13 274.91L570.352 292.859L581.754 246.09L508.536 228.141L497.13 274.91Z" fill="#4D5057"/>
<path d="M511.616 244.346C511.229 245.922 511.317 247.578 511.871 249.104C512.425 250.63 513.419 251.957 514.727 252.918C516.036 253.879 517.599 254.431 519.221 254.503C520.843 254.575 522.45 254.164 523.838 253.323C525.226 252.481 526.334 251.247 527.021 249.776C527.707 248.305 527.942 246.664 527.696 245.059C527.45 243.455 526.733 241.959 525.636 240.762C524.54 239.565 523.113 238.72 521.536 238.334C520.49 238.077 519.404 238.029 518.339 238.192C517.274 238.355 516.252 238.727 515.331 239.285C514.41 239.843 513.608 240.578 512.97 241.446C512.333 242.314 511.873 243.3 511.616 244.346Z" fill="#23242F"/>
<path d="M519.848 280.552L570.287 292.92L553.445 252.557L519.848 280.552Z" fill="#23242F"/>
<path d="M500.073 275.724L541.715 285.932L526.35 258.568L500.073 275.724Z" fill="#757575"/>
</svg>
