<svg width="11" height="14" viewBox="0 0 11 14" fill="none" xmlns="http://www.w3.org/2000/svg">
<path d="M9.29257 1.96245H7.92593V1.80801C7.92301 1.31264 7.52089 0.910519 7.02552 0.913433H6.57386C6.28246 0.173292 5.44616 -0.190951 4.70602 0.100443C4.33303 0.24614 4.03873 0.540448 3.89303 0.913433H3.45011C2.96057 0.913433 2.56427 1.30973 2.56427 1.79927C2.56427 1.80219 2.56427 1.8051 2.56427 1.81093V1.96537H1.19763C0.533252 1.96537 0 2.5161 0 3.18048V12.8081C0 13.4638 0.530338 13.997 1.18889 14C1.1918 14 1.19472 14 1.20054 14H9.29257C9.9482 14.0058 10.4873 13.4784 10.4902 12.8198C10.4902 12.8169 10.4902 12.814 10.4902 12.8081V3.17757C10.4902 2.51319 9.95403 1.96245 9.29257 1.96245ZM3.14706 1.80801C3.14123 1.64192 3.27236 1.50205 3.43845 1.49622C3.44137 1.49622 3.44719 1.49622 3.45011 1.49622H4.10283C4.23979 1.49622 4.35635 1.40006 4.38548 1.26893C4.48164 0.858068 4.81966 0.581244 5.22761 0.581244C5.63265 0.581244 5.98233 0.86681 6.06683 1.26311C6.09597 1.40006 6.21253 1.49622 6.3524 1.49622H7.0226C7.19744 1.49331 7.34022 1.63318 7.34022 1.80801V2.95319H3.14706V1.80801ZM9.90741 12.8052C9.90741 13.1403 9.63641 13.4113 9.30422 13.4142C9.30131 13.4142 9.29548 13.4142 9.29257 13.4142H1.19763C0.862527 13.4201 0.585703 13.152 0.582789 12.8169C0.582789 12.814 0.582789 12.8081 0.582789 12.8052V3.17757C0.582789 2.83372 0.856699 2.54524 1.19763 2.54524H2.56427V3.25333C2.55844 3.40194 2.675 3.53015 2.82653 3.53598C2.83235 3.53598 2.83818 3.53598 2.84109 3.53598H7.63453C7.79188 3.54181 7.92301 3.41651 7.92593 3.25916C7.92593 3.25624 7.92593 3.25624 7.92593 3.25333V2.54524H9.29257C9.63641 2.54524 9.90741 2.83664 9.90741 3.17757V12.8052Z" fill="#F1002B"/>
<path d="M5.57865 10.3251H2.17225C2.01199 10.3251 1.88086 10.4562 1.88086 10.6165C1.88086 10.7767 2.00907 10.9079 2.17225 10.9079H5.57865C5.73892 10.9079 5.87005 10.7767 5.87005 10.6165C5.87005 10.4562 5.73892 10.3251 5.57865 10.3251Z" fill="#F1002B"/>
<path d="M8.3168 11.5498H2.17421C2.01394 11.5498 1.88281 11.6809 1.88281 11.8412C1.88281 12.0015 2.01394 12.1326 2.17421 12.1326H8.31971C8.47998 12.1326 8.61111 12.0015 8.61111 11.8412C8.61111 11.6809 8.47998 11.5498 8.3168 11.5498Z" fill="#F1002B"/>
<path d="M9.0324 6.37704L8.3622 6.07399L7.76484 5.12113C7.56669 4.80351 7.2141 4.61119 6.8382 4.61411H4.52162C4.18069 4.61411 3.86015 4.77146 3.65326 5.03954L2.88398 6.05068L1.59019 6.40327C1.20264 6.50817 0.931641 6.86076 0.931641 7.26288V7.76991C0.931641 8.26236 1.33085 8.66449 1.82622 8.66449H1.85536C2.05351 9.23853 2.68292 9.5445 3.25697 9.34344C3.57459 9.23271 3.82519 8.98211 3.93592 8.66449H6.45065C6.6488 9.23853 7.27821 9.5445 7.85226 9.34344C8.16988 9.23271 8.42048 8.98211 8.5312 8.66449H8.66233C9.15479 8.66157 9.554 8.26236 9.55691 7.76991V7.19003C9.55691 6.84036 9.35002 6.52274 9.0324 6.37704ZM2.89564 8.81893C2.61007 8.81893 2.37696 8.58581 2.37696 8.30025C2.37696 8.01468 2.61007 7.78156 2.89564 7.78156C3.1812 7.78156 3.41432 8.01468 3.41432 8.30025C3.41432 8.58581 3.1812 8.81601 2.89564 8.81893ZM7.49384 8.81893C7.20828 8.81893 6.97516 8.58581 6.97516 8.30025C6.97516 8.01468 7.20828 7.78156 7.49384 7.78156C7.77941 7.78156 8.01252 8.01468 8.01252 8.30025C8.00961 8.58581 7.77941 8.81601 7.49384 8.81893ZM8.66233 8.0817H8.572C8.44962 7.48434 7.86683 7.10262 7.27238 7.225C6.84112 7.31242 6.5031 7.65044 6.41568 8.0817H3.97671C3.85433 7.48434 3.27445 7.0997 2.67709 7.22209C2.24583 7.3095 1.90781 7.64752 1.81748 8.07879C1.64847 8.07296 1.51443 7.936 1.51443 7.76991V7.26288C1.51443 7.12301 1.60768 7.00063 1.74172 6.96566L3.13167 6.58685C3.19286 6.56936 3.24823 6.5344 3.28611 6.48195L4.11658 5.39504C4.21274 5.26974 4.36427 5.1969 4.52162 5.1969H6.8382C7.01304 5.19398 7.17622 5.28431 7.26947 5.43293L7.91345 6.46155C7.94259 6.51108 7.98921 6.54897 8.03875 6.57228L8.78763 6.91321C8.89836 6.96275 8.9683 7.07348 8.9683 7.19295V7.76991H8.97412C8.97412 7.94183 8.83426 8.0817 8.66233 8.0817Z" fill="#F1002B"/>
</svg>
