<svg width="24" height="24" viewBox="0 0 24 24" fill="none" xmlns="http://www.w3.org/2000/svg">
<circle cx="12" cy="12" r="12" fill="#2E313C"/>
<path d="M16.3368 7.18297H14.8166V7.01118C14.8133 6.46014 14.366 6.01283 13.815 6.01607H13.3126C12.9884 5.19276 12.0581 4.78759 11.2348 5.11173C10.8199 5.2738 10.4926 5.60118 10.3305 6.01607H9.83779C9.29324 6.01607 8.85241 6.4569 8.85241 7.00145C8.85241 7.0047 8.85241 7.00794 8.85241 7.01442V7.18621H7.33221C6.59317 7.18621 6 7.79883 6 8.53787L6 17.6742C6 18.4035 6.58993 18.9967 7.32248 18.9999C7.32572 18.9999 7.32897 18.9999 7.33545 18.9999H16.3368C17.0661 19.0064 17.6657 18.4197 17.669 17.6872C17.669 17.6839 17.669 17.6807 17.669 17.6742V8.53463C17.669 7.79559 17.0726 7.18297 16.3368 7.18297ZM9.50069 7.01118C9.49421 6.82642 9.64007 6.67083 9.82483 6.66435C9.82807 6.66435 9.83455 6.66435 9.83779 6.66435H10.5639C10.7162 6.66435 10.8459 6.55739 10.8783 6.41152C10.9852 5.95449 11.3612 5.64656 11.815 5.64656C12.2656 5.64656 12.6546 5.96421 12.7486 6.40504C12.781 6.55739 12.9106 6.66435 13.0662 6.66435H13.8117C14.0062 6.66111 14.165 6.8167 14.165 7.01118V8.28504H9.50069V7.01118ZM17.0207 17.671C17.0207 18.0437 16.7192 18.3452 16.3497 18.3484C16.3465 18.3484 16.34 18.3484 16.3368 18.3484H7.33221C6.95945 18.3549 6.65152 18.0567 6.64828 17.6839C6.64828 17.6807 6.64828 17.6742 6.64828 17.671V8.53463C6.64828 8.15214 6.95297 7.83125 7.33221 7.83125H8.85241V8.6189C8.84593 8.78421 8.97559 8.92683 9.14414 8.93332C9.15062 8.93332 9.1571 8.93332 9.16035 8.93332H14.4924C14.6675 8.9398 14.8133 8.80042 14.8166 8.62539C14.8166 8.62214 14.8166 8.62214 14.8166 8.6189V7.83125H16.3368C16.7192 7.83125 17.0207 8.15539 17.0207 8.53463V17.671Z" fill="#ED2939"/>
<path d="M16.0491 12.0939L15.3036 11.7568L14.6391 10.6968C14.4187 10.3435 14.0265 10.1296 13.6084 10.1328H11.0315C10.6522 10.1328 10.2957 10.3079 10.0655 10.6061L9.20981 11.7308L7.77064 12.1231C7.33953 12.2397 7.03809 12.632 7.03809 13.0793V13.6433C7.03809 14.1911 7.48216 14.6384 8.03319 14.6384H8.0656C8.28602 15.2769 8.98616 15.6173 9.62471 15.3936C9.97802 15.2704 10.2568 14.9917 10.3799 14.6384H13.1773C13.3977 15.2769 14.0978 15.6173 14.7364 15.3936C15.0897 15.2704 15.3684 14.9917 15.4916 14.6384H15.6375C16.1853 14.6351 16.6293 14.1911 16.6326 13.6433V12.9982C16.6326 12.6093 16.4024 12.256 16.0491 12.0939ZM9.22278 14.8102C8.90512 14.8102 8.64581 14.5508 8.64581 14.2332C8.64581 13.9155 8.90512 13.6562 9.22278 13.6562C9.54043 13.6562 9.79974 13.9155 9.79974 14.2332C9.79974 14.5508 9.54043 14.8069 9.22278 14.8102ZM14.3377 14.8102C14.02 14.8102 13.7607 14.5508 13.7607 14.2332C13.7607 13.9155 14.02 13.6562 14.3377 13.6562C14.6553 13.6562 14.9146 13.9155 14.9146 14.2332C14.9114 14.5508 14.6553 14.8069 14.3377 14.8102ZM15.6375 13.9901H15.537C15.4008 13.3256 14.7526 12.901 14.0913 13.0371C13.6116 13.1344 13.2356 13.5104 13.1384 13.9901H10.4253C10.2892 13.3256 9.64416 12.8977 8.97967 13.0339C8.49995 13.1311 8.12395 13.5071 8.02347 13.9869C7.83547 13.9804 7.68636 13.828 7.68636 13.6433V13.0793C7.68636 12.9237 7.79009 12.7875 7.93919 12.7486L9.48533 12.3273C9.5534 12.3078 9.61498 12.2689 9.65712 12.2106L10.5809 11.0015C10.6879 10.8622 10.8564 10.7811 11.0315 10.7811H13.6084C13.8028 10.7779 13.9844 10.8784 14.0881 11.0437L14.8044 12.1879C14.8368 12.243 14.8887 12.2851 14.9438 12.3111L15.7768 12.6903C15.9 12.7454 15.9778 12.8686 15.9778 13.0015V13.6433H15.9843C15.9843 13.8345 15.8287 13.9901 15.6375 13.9901Z" fill="#ED2939"/>
<path d="M13.4512 16.123H9.66203C9.48375 16.123 9.33789 16.2689 9.33789 16.4472C9.33789 16.6255 9.48051 16.7713 9.66203 16.7713H13.4512C13.6295 16.7713 13.7753 16.6255 13.7753 16.4472C13.7753 16.2689 13.6295 16.123 13.4512 16.123Z" fill="#ED2939"/>
</svg>
