<svg width="11" height="14" viewBox="0 0 11 14" fill="none" xmlns="http://www.w3.org/2000/svg">
<path d="M9.29257 1.96245H7.92593V1.80801C7.92301 1.31264 7.52089 0.910519 7.02552 0.913433H6.57386C6.28246 0.173292 5.44616 -0.190951 4.70602 0.100443C4.33303 0.24614 4.03873 0.540448 3.89303 0.913433H3.45011C2.96057 0.913433 2.56427 1.30973 2.56427 1.79927C2.56427 1.80219 2.56427 1.8051 2.56427 1.81093V1.96537H1.19763C0.533252 1.96537 0 2.5161 0 3.18048V12.8081C0 13.4638 0.530338 13.997 1.18889 14C1.1918 14 1.19472 14 1.20054 14H9.29257C9.9482 14.0058 10.4873 13.4784 10.4902 12.8198C10.4902 12.8169 10.4902 12.814 10.4902 12.8081V3.17757C10.4902 2.51319 9.95403 1.96245 9.29257 1.96245ZM3.14706 1.80801C3.14123 1.64192 3.27236 1.50205 3.43845 1.49622C3.44137 1.49622 3.44719 1.49622 3.45011 1.49622H4.10283C4.23979 1.49622 4.35635 1.40006 4.38548 1.26893C4.48164 0.858068 4.81966 0.581244 5.22761 0.581244C5.63265 0.581244 5.98233 0.86681 6.06683 1.26311C6.09597 1.40006 6.21253 1.49622 6.3524 1.49622H7.0226C7.19744 1.49331 7.34022 1.63318 7.34022 1.80801V2.95319H3.14706V1.80801ZM9.90741 12.8052C9.90741 13.1403 9.63641 13.4113 9.30422 13.4142C9.30131 13.4142 9.29548 13.4142 9.29257 13.4142H1.19763C0.862527 13.4201 0.585703 13.152 0.582789 12.8169C0.582789 12.814 0.582789 12.8081 0.582789 12.8052V3.17757C0.582789 2.83372 0.856699 2.54524 1.19763 2.54524H2.56427V3.25333C2.55844 3.40194 2.675 3.53015 2.82652 3.53598C2.83235 3.53598 2.83818 3.53598 2.84109 3.53598H7.63453C7.79188 3.54181 7.92301 3.41651 7.92593 3.25916C7.92593 3.25624 7.92593 3.25624 7.92593 3.25333V2.54524H9.29257C9.63641 2.54524 9.90741 2.83664 9.90741 3.17757V12.8052Z" fill="#D29D4E"/>
<path d="M5.57963 10.3252H2.17323C2.01296 10.3252 1.88184 10.4563 1.88184 10.6166C1.88184 10.7769 2.01005 10.908 2.17323 10.908H5.57963C5.7399 10.908 5.87102 10.7769 5.87102 10.6166C5.87102 10.4563 5.7399 10.3252 5.57963 10.3252Z" fill="#D29D4E"/>
<path d="M8.31582 11.5498H2.17323C2.01296 11.5498 1.88184 11.6809 1.88184 11.8412C1.88184 12.0015 2.01296 12.1326 2.17323 12.1326H8.31874C8.479 12.1326 8.61013 12.0015 8.61013 11.8412C8.61013 11.6809 8.479 11.5498 8.31582 11.5498Z" fill="#D29D4E"/>
<path d="M9.03338 6.37723L8.36317 6.07418L7.76581 5.12132C7.56767 4.8037 7.21508 4.61138 6.83918 4.61429H4.5226C4.18166 4.61429 3.86113 4.77164 3.65424 5.03973L2.88496 6.05086L1.59117 6.40345C1.20361 6.50835 0.932617 6.86094 0.932617 7.26306V7.77009C0.932617 8.26255 1.33183 8.66467 1.8272 8.66467H1.85634C2.05449 9.23872 2.6839 9.54468 3.25794 9.34362C3.57556 9.23289 3.82616 8.98229 3.93689 8.66467H6.45163C6.64977 9.23872 7.27919 9.54468 7.85323 9.34362C8.17085 9.23289 8.42145 8.98229 8.53218 8.66467H8.66331C9.15577 8.66176 9.55498 8.26255 9.55789 7.77009V7.19022C9.55789 6.84054 9.351 6.52292 9.03338 6.37723ZM2.89661 8.81911C2.61105 8.81911 2.37793 8.58599 2.37793 8.30043C2.37793 8.01486 2.61105 7.78175 2.89661 7.78175C3.18218 7.78175 3.4153 8.01486 3.4153 8.30043C3.4153 8.58599 3.18218 8.8162 2.89661 8.81911ZM7.49482 8.81911C7.20925 8.81911 6.97614 8.58599 6.97614 8.30043C6.97614 8.01486 7.20925 7.78175 7.49482 7.78175C7.78038 7.78175 8.0135 8.01486 8.0135 8.30043C8.01059 8.58599 7.78038 8.8162 7.49482 8.81911ZM8.66331 8.08188H8.57298C8.45059 7.48452 7.8678 7.1028 7.27336 7.22518C6.84209 7.3126 6.50408 7.65062 6.41666 8.08188H3.97769C3.8553 7.48452 3.27543 7.09988 2.67807 7.22227C2.24681 7.30969 1.90879 7.64771 1.81846 8.07897C1.64945 8.07314 1.51541 7.93619 1.51541 7.77009V7.26306C1.51541 7.1232 1.60865 7.00081 1.74269 6.96584L3.13264 6.58703C3.19384 6.56955 3.2492 6.53458 3.28708 6.48213L4.11756 5.39523C4.21372 5.26993 4.36524 5.19708 4.5226 5.19708H6.83918C7.01402 5.19417 7.1772 5.2845 7.27044 5.43311L7.91443 6.46173C7.94357 6.51127 7.99019 6.54915 8.03973 6.57246L8.78861 6.91339C8.89934 6.96293 8.96927 7.07366 8.96927 7.19313V7.77009H8.9751C8.9751 7.94201 8.83523 8.08188 8.66331 8.08188Z" fill="#D29D4E"/>
</svg>
