<svg width="96" height="35" viewBox="0 0 96 35" fill="none" xmlns="http://www.w3.org/2000/svg">
<path d="M16.3622 34.7877H14.7773V27.1535H16.3622V34.7877Z" fill="#A2A2A2"/>
<path d="M19.6842 27.1535H21.357L24.3973 32.4829V27.1535H25.8837V34.7877H24.2885L21.1706 29.365V34.7877H19.6842V27.1535Z" fill="#A2A2A2"/>
<path d="M29.2316 27.1638H34.6439V28.5053H30.8164V30.261H34.1674V31.5869H30.8164V34.7877H29.2316V27.1638Z" fill="#A2A2A2"/>
<path d="M40.9491 33.6482C41.5809 33.6482 42.0816 33.4152 42.451 32.949C42.824 32.4829 43.0104 31.82 43.0104 30.9602C43.0104 30.1039 42.824 29.4427 42.451 28.9766C42.0816 28.507 41.5809 28.2722 40.9491 28.2722C40.3172 28.2722 39.8131 28.5053 39.4367 28.9714C39.0604 29.4375 38.8722 30.1005 38.8722 30.9602C38.8722 31.82 39.0604 32.4829 39.4367 32.949C39.8131 33.4152 40.3172 33.6482 40.9491 33.6482ZM44.6056 30.9602C44.6056 32.331 44.2206 33.3806 43.4506 34.1092C42.874 34.7031 42.0402 35 40.9491 35C39.858 35 39.0241 34.7031 38.4475 34.1092C37.6741 33.3806 37.2873 32.331 37.2873 30.9602C37.2873 29.5618 37.6741 28.5122 38.4475 27.8112C39.0241 27.2174 39.858 26.9204 40.9491 26.9204C42.0402 26.9204 42.874 27.2174 43.4506 27.8112C44.2206 28.5122 44.6056 29.5618 44.6056 30.9602Z" fill="#A2A2A2"/>
<path d="M53.2311 27.1535V28.5053H50.9471V34.7877H49.3415V28.5053H47.0471V27.1535H53.2311Z" fill="#A2A2A2"/>
<path d="M61.6702 28.5053H57.6304V30.1264H61.3387V31.4522H57.6304V33.4152H61.8566V34.7877H56.0714V27.1535H61.6702V28.5053Z" fill="#A2A2A2"/>
<path d="M64.6244 31.0327C64.6244 29.6999 64.9818 28.6727 65.6965 27.9511C66.318 27.3227 67.1087 27.0085 68.0686 27.0085C69.353 27.0085 70.2922 27.4297 70.8861 28.2722C71.2141 28.7452 71.3902 29.22 71.4144 29.6965H69.8192C69.7156 29.3305 69.5827 29.0543 69.4204 28.8678C69.1303 28.5363 68.7005 28.3706 68.1307 28.3706C67.5507 28.3706 67.0932 28.6054 66.7582 29.075C66.4233 29.5411 66.2559 30.2023 66.2559 31.0586C66.2559 31.9149 66.432 32.5571 66.7841 32.9853C67.1398 33.41 67.5904 33.6223 68.1359 33.6223C68.6953 33.6223 69.1217 33.4393 69.4152 33.0733C69.5775 32.8765 69.7121 32.5813 69.8192 32.1877H71.3988C71.2607 33.0198 70.9068 33.6966 70.3371 34.218C69.7708 34.7393 69.044 35 68.1566 35C67.0586 35 66.1954 34.6478 65.567 33.9435C64.9386 33.2356 64.6244 32.2654 64.6244 31.0327Z" fill="#A2A2A2"/>
<path d="M74.467 34.7877V27.1535H76.0467V30.0642H79.0299V27.1535H80.6148V34.7877H79.0299V31.3797H76.0467V34.7877H74.467Z" fill="#A2A2A2"/>
<path fill-rule="evenodd" clip-rule="evenodd" d="M51.7012 24.0044C58.3296 24.0044 63.7031 18.6309 63.7031 12.0024C63.7031 5.37394 58.3296 0.000488281 51.7012 0.000488281C45.0727 0.000488281 39.6992 5.37394 39.6992 12.0024C39.6992 18.6309 45.0727 24.0044 51.7012 24.0044ZM51.7006 17.7204C48.5429 17.7204 45.9832 15.1607 45.9832 12.003C45.9832 8.84541 48.5429 6.28564 51.7006 6.28564C54.8582 6.28564 57.418 8.84541 57.418 12.003C57.418 15.1607 54.8582 17.7204 51.7006 17.7204Z" fill="white"/>
<mask id="mask0_5023_31442" style="mask-type:alpha" maskUnits="userSpaceOnUse" x="73" y="0" width="18" height="16">
<path d="M90.0156 6.28456H81.4301V8.82999H87.9999C87.9999 8.82999 88.7693 8.921 89.1955 9.5188C89.6216 10.1166 89.6298 10.3618 89.6298 10.3618V15.1548L73.9746 15.1548V5.38479V2.24511e-05H90.0156L90.0156 6.28456Z" fill="#D9D9D9"/>
</mask>
<g mask="url(#mask0_5023_31442)">
<path fill-rule="evenodd" clip-rule="evenodd" d="M81.5377 15.1283C77.3516 15.1283 73.9582 11.7348 73.9582 7.54875C73.9582 3.3627 77.3516 -0.0307617 81.5377 -0.0307617C85.7237 -0.0307617 89.1172 3.3627 89.1172 7.54875C89.1172 11.7348 85.7237 15.1283 81.5377 15.1283ZM81.53 8.82914C82.2327 8.82914 82.8023 8.25954 82.8023 7.5569C82.8023 6.85427 82.2327 6.28467 81.53 6.28467C80.8274 6.28467 80.2578 6.85427 80.2578 7.5569C80.2578 8.25954 80.8274 8.82914 81.53 8.82914Z" fill="white"/>
</g>
<mask id="mask1_5023_31442" style="mask-type:alpha" maskUnits="userSpaceOnUse" x="79" y="8" width="17" height="17">
<path d="M79.3359 14.4542L81.4972 15.1439H87.9215V17.6894H81.3517C81.3517 17.6894 80.5823 17.7804 80.1561 18.3782C79.7299 18.976 79.7218 19.2212 79.7218 19.2212V24.0142L95.3769 24.0142V14.2442V8.8594H79.3359L79.3359 14.4542Z" fill="#D9D9D9"/>
</mask>
<g mask="url(#mask1_5023_31442)">
<path fill-rule="evenodd" clip-rule="evenodd" d="M87.8139 23.9876C91.9999 23.9876 95.3934 20.5942 95.3934 16.4081C95.3934 12.2221 91.9999 8.82861 87.8139 8.82861C83.6278 8.82861 80.2344 12.2221 80.2344 16.4081C80.2344 20.5942 83.6278 23.9876 87.8139 23.9876ZM87.8217 17.6883C87.1191 17.6883 86.5495 17.1187 86.5495 16.4161C86.5495 15.7135 87.1191 15.1439 87.8217 15.1439C88.5244 15.1439 89.094 15.7135 89.094 16.4161C89.094 17.1187 88.5244 17.6883 87.8217 17.6883Z" fill="white"/>
</g>
<path d="M82.0039 0.000488281V6.28503C82.0039 6.28503 84.4564 6.28503 88.8862 6.28503C93.3161 6.28503 95.3701 1.47205 95.3701 0.000488281L82.0039 0.000488281Z" fill="white"/>
<path d="M87.9062 17.7202V24.0048C87.9062 24.0048 84.8866 24.0048 80.4568 24.0048C76.0269 24.0048 73.973 19.1918 73.973 17.7202H87.9062Z" fill="white"/>
<path fill-rule="evenodd" clip-rule="evenodd" d="M65.6063 13.3666H65.6055V0.000488281C67.077 0.000488281 71.89 2.05446 71.89 6.4843V10.6381H71.8908V24.0042C70.4193 24.0042 65.6063 21.9502 65.6063 17.5204V13.3666Z" fill="white"/>
<path d="M29.9359 0.000488281H0C0 5.06491 4.75173 6.30036 7.12759 6.28503H11.3582L11.3735 19.8811C11.4757 21.2504 12.8756 23.989 17.658 23.989V6.28503H29.9359V0.000488281Z" fill="#FE7300"/>
<mask id="mask2_5023_31442" style="mask-type:alpha" maskUnits="userSpaceOnUse" x="20" y="0" width="19" height="17">
<path d="M20.3242 6.30034H29.8737V10.5769H20.7534V16.8921L38.1662 16.8921V6.30034V0.000471355H20.3242V6.30034Z" fill="#D9D9D9"/>
</mask>
<g mask="url(#mask2_5023_31442)">
<path fill-rule="evenodd" clip-rule="evenodd" d="M29.7272 16.8768C34.3875 16.8768 38.1654 13.0989 38.1654 8.43863C38.1654 3.77838 34.3875 0.000488281 29.7272 0.000488281C25.0669 0.000488281 21.2891 3.77838 21.2891 8.43863C21.2891 13.0989 25.0669 16.8768 29.7272 16.8768ZM29.727 10.5866C28.5407 10.5866 27.5791 9.62491 27.5791 8.43866C27.5791 7.25241 28.5407 6.29077 29.727 6.29077C30.9132 6.29077 31.8749 7.25241 31.8749 8.43866C31.8749 9.62491 30.9132 10.5866 29.727 10.5866Z" fill="white"/>
</g>
<rect x="21.582" y="0.000488281" width="8.33851" height="6.28454" fill="white"/>
<path d="M21.582 10.5767H27.8666C27.8666 10.5767 27.8666 13.7189 27.8666 18.1488C27.8666 22.5786 23.0536 23.9428 21.582 23.9428V10.5767Z" fill="white"/>
<path d="M32.1914 11.4048L26.4852 14.0381C26.4852 14.0381 27.8018 16.8912 29.658 20.9134C31.5142 24.9356 36.4559 24.1576 37.792 23.541L32.1914 11.4048Z" fill="white"/>
<rect x="65.6055" y="10.6382" width="6.28454" height="2.72841" fill="#FE7300"/>
</svg>
